<mxfile host="app.diagrams.net" modified="2023-09-12T07:44:07.035Z" agent="Mozilla/5.0 (Windows NT 10.0; Win64; x64) AppleWebKit/537.36 (KHTML, like Gecko) Chrome/116.0.0.0 Safari/537.36" etag="Z-3aSNrGiDWBPfnaCQVO" version="21.7.4" type="github" pages="10">
  <diagram name="逻辑运算符" id="ewOLM0McmfPBh60qDEbp">
    <mxGraphModel dx="512" dy="389" grid="0" gridSize="10" guides="1" tooltips="1" connect="1" arrows="1" fold="1" page="1" pageScale="1" pageWidth="1920" pageHeight="1200" math="0" shadow="0">
      <root>
        <mxCell id="0" />
        <mxCell id="1" parent="0" />
        <mxCell id="JKTWcJkKpOwv_ow7P1ho-1" value="" style="childLayout=tableLayout;recursiveResize=0;shadow=0;fillColor=none;" parent="1" vertex="1">
          <mxGeometry x="81" y="99" width="308" height="175" as="geometry" />
        </mxCell>
        <mxCell id="JKTWcJkKpOwv_ow7P1ho-2" value="" style="shape=tableRow;horizontal=0;startSize=0;swimlaneHead=0;swimlaneBody=0;top=0;left=0;bottom=0;right=0;dropTarget=0;collapsible=0;recursiveResize=0;expand=0;fontStyle=0;fillColor=none;strokeColor=inherit;" parent="JKTWcJkKpOwv_ow7P1ho-1" vertex="1">
          <mxGeometry width="308" height="35" as="geometry" />
        </mxCell>
        <mxCell id="JKTWcJkKpOwv_ow7P1ho-3" value="逻辑运算符" style="connectable=0;recursiveResize=0;strokeColor=inherit;fillColor=#99FFCC;align=center;whiteSpace=wrap;html=1;fontStyle=1" parent="JKTWcJkKpOwv_ow7P1ho-2" vertex="1">
          <mxGeometry width="140" height="35" as="geometry">
            <mxRectangle width="140" height="35" as="alternateBounds" />
          </mxGeometry>
        </mxCell>
        <mxCell id="JKTWcJkKpOwv_ow7P1ho-4" value="功能" style="connectable=0;recursiveResize=0;strokeColor=inherit;fillColor=#99FFCC;align=center;whiteSpace=wrap;html=1;fontStyle=1" parent="JKTWcJkKpOwv_ow7P1ho-2" vertex="1">
          <mxGeometry x="140" width="168" height="35" as="geometry">
            <mxRectangle width="168" height="35" as="alternateBounds" />
          </mxGeometry>
        </mxCell>
        <mxCell id="JKTWcJkKpOwv_ow7P1ho-6" style="shape=tableRow;horizontal=0;startSize=0;swimlaneHead=0;swimlaneBody=0;top=0;left=0;bottom=0;right=0;dropTarget=0;collapsible=0;recursiveResize=0;expand=0;fontStyle=0;fillColor=none;strokeColor=inherit;" parent="JKTWcJkKpOwv_ow7P1ho-1" vertex="1">
          <mxGeometry y="35" width="308" height="46" as="geometry" />
        </mxCell>
        <mxCell id="JKTWcJkKpOwv_ow7P1ho-7" value="AND 或 &amp;amp;&amp;amp;" style="connectable=0;recursiveResize=0;strokeColor=inherit;fillColor=none;align=center;whiteSpace=wrap;html=1;" parent="JKTWcJkKpOwv_ow7P1ho-6" vertex="1">
          <mxGeometry width="140" height="46" as="geometry">
            <mxRectangle width="140" height="46" as="alternateBounds" />
          </mxGeometry>
        </mxCell>
        <mxCell id="JKTWcJkKpOwv_ow7P1ho-8" value="并且 (多个条件同时成立)" style="connectable=0;recursiveResize=0;strokeColor=inherit;fillColor=none;align=center;whiteSpace=wrap;html=1;" parent="JKTWcJkKpOwv_ow7P1ho-6" vertex="1">
          <mxGeometry x="140" width="168" height="46" as="geometry">
            <mxRectangle width="168" height="46" as="alternateBounds" />
          </mxGeometry>
        </mxCell>
        <mxCell id="JKTWcJkKpOwv_ow7P1ho-10" style="shape=tableRow;horizontal=0;startSize=0;swimlaneHead=0;swimlaneBody=0;top=0;left=0;bottom=0;right=0;dropTarget=0;collapsible=0;recursiveResize=0;expand=0;fontStyle=0;fillColor=none;strokeColor=inherit;" parent="JKTWcJkKpOwv_ow7P1ho-1" vertex="1">
          <mxGeometry y="81" width="308" height="47" as="geometry" />
        </mxCell>
        <mxCell id="JKTWcJkKpOwv_ow7P1ho-11" value="OR 或 `" style="connectable=0;recursiveResize=0;strokeColor=inherit;fillColor=none;align=center;whiteSpace=wrap;html=1;" parent="JKTWcJkKpOwv_ow7P1ho-10" vertex="1">
          <mxGeometry width="140" height="47" as="geometry">
            <mxRectangle width="140" height="47" as="alternateBounds" />
          </mxGeometry>
        </mxCell>
        <mxCell id="JKTWcJkKpOwv_ow7P1ho-12" value="或者 (多个条成立一个即可)" style="connectable=0;recursiveResize=0;strokeColor=inherit;fillColor=none;align=center;whiteSpace=wrap;html=1;" parent="JKTWcJkKpOwv_ow7P1ho-10" vertex="1">
          <mxGeometry x="140" width="168" height="47" as="geometry">
            <mxRectangle width="168" height="47" as="alternateBounds" />
          </mxGeometry>
        </mxCell>
        <mxCell id="JKTWcJkKpOwv_ow7P1ho-14" style="shape=tableRow;horizontal=0;startSize=0;swimlaneHead=0;swimlaneBody=0;top=0;left=0;bottom=0;right=0;dropTarget=0;collapsible=0;recursiveResize=0;expand=0;fontStyle=0;fillColor=none;strokeColor=inherit;" parent="JKTWcJkKpOwv_ow7P1ho-1" vertex="1">
          <mxGeometry y="128" width="308" height="47" as="geometry" />
        </mxCell>
        <mxCell id="JKTWcJkKpOwv_ow7P1ho-15" value="NOT 或 !" style="connectable=0;recursiveResize=0;strokeColor=inherit;fillColor=none;align=center;whiteSpace=wrap;html=1;" parent="JKTWcJkKpOwv_ow7P1ho-14" vertex="1">
          <mxGeometry width="140" height="47" as="geometry">
            <mxRectangle width="140" height="47" as="alternateBounds" />
          </mxGeometry>
        </mxCell>
        <mxCell id="JKTWcJkKpOwv_ow7P1ho-16" value="非 , 不是" style="connectable=0;recursiveResize=0;strokeColor=inherit;fillColor=none;align=center;whiteSpace=wrap;html=1;" parent="JKTWcJkKpOwv_ow7P1ho-14" vertex="1">
          <mxGeometry x="140" width="168" height="47" as="geometry">
            <mxRectangle width="168" height="47" as="alternateBounds" />
          </mxGeometry>
        </mxCell>
      </root>
    </mxGraphModel>
  </diagram>
  <diagram id="cpUxIBo-4JTzJLIlJhM9" name="常见函数">
    <mxGraphModel dx="511" dy="387" grid="0" gridSize="10" guides="1" tooltips="1" connect="1" arrows="1" fold="1" page="1" pageScale="1" pageWidth="1920" pageHeight="1200" math="0" shadow="0">
      <root>
        <mxCell id="0" />
        <mxCell id="1" parent="0" />
        <mxCell id="vUQLPIok8WBu1ZQCvkCV-1" value="" style="childLayout=tableLayout;recursiveResize=0;shadow=0;fillColor=none;" vertex="1" parent="1">
          <mxGeometry x="122" y="59" width="270" height="260.79" as="geometry" />
        </mxCell>
        <mxCell id="vUQLPIok8WBu1ZQCvkCV-2" value="" style="shape=tableRow;horizontal=0;startSize=0;swimlaneHead=0;swimlaneBody=0;top=0;left=0;bottom=0;right=0;dropTarget=0;collapsible=0;recursiveResize=0;expand=0;fontStyle=0;fillColor=none;strokeColor=inherit;" vertex="1" parent="vUQLPIok8WBu1ZQCvkCV-1">
          <mxGeometry width="270" height="35" as="geometry" />
        </mxCell>
        <mxCell id="vUQLPIok8WBu1ZQCvkCV-3" value="函数" style="connectable=0;recursiveResize=0;strokeColor=inherit;fillColor=#FF9999;align=center;whiteSpace=wrap;html=1;fontStyle=1" vertex="1" parent="vUQLPIok8WBu1ZQCvkCV-2">
          <mxGeometry width="135" height="35" as="geometry">
            <mxRectangle width="135" height="35" as="alternateBounds" />
          </mxGeometry>
        </mxCell>
        <mxCell id="vUQLPIok8WBu1ZQCvkCV-4" value="功能" style="connectable=0;recursiveResize=0;strokeColor=inherit;fillColor=#FF9999;align=center;whiteSpace=wrap;html=1;fontStyle=1" vertex="1" parent="vUQLPIok8WBu1ZQCvkCV-2">
          <mxGeometry x="135" width="135" height="35" as="geometry">
            <mxRectangle width="135" height="35" as="alternateBounds" />
          </mxGeometry>
        </mxCell>
        <mxCell id="vUQLPIok8WBu1ZQCvkCV-6" style="shape=tableRow;horizontal=0;startSize=0;swimlaneHead=0;swimlaneBody=0;top=0;left=0;bottom=0;right=0;dropTarget=0;collapsible=0;recursiveResize=0;expand=0;fontStyle=0;fillColor=none;strokeColor=inherit;" vertex="1" parent="vUQLPIok8WBu1ZQCvkCV-1">
          <mxGeometry y="35" width="270" height="46" as="geometry" />
        </mxCell>
        <mxCell id="vUQLPIok8WBu1ZQCvkCV-7" value="count" style="connectable=0;recursiveResize=0;strokeColor=inherit;fillColor=none;align=center;whiteSpace=wrap;html=1;" vertex="1" parent="vUQLPIok8WBu1ZQCvkCV-6">
          <mxGeometry width="135" height="46" as="geometry">
            <mxRectangle width="135" height="46" as="alternateBounds" />
          </mxGeometry>
        </mxCell>
        <mxCell id="vUQLPIok8WBu1ZQCvkCV-8" value="统计数量" style="connectable=0;recursiveResize=0;strokeColor=inherit;fillColor=none;align=center;whiteSpace=wrap;html=1;" vertex="1" parent="vUQLPIok8WBu1ZQCvkCV-6">
          <mxGeometry x="135" width="135" height="46" as="geometry">
            <mxRectangle width="135" height="46" as="alternateBounds" />
          </mxGeometry>
        </mxCell>
        <mxCell id="vUQLPIok8WBu1ZQCvkCV-10" style="shape=tableRow;horizontal=0;startSize=0;swimlaneHead=0;swimlaneBody=0;top=0;left=0;bottom=0;right=0;dropTarget=0;collapsible=0;recursiveResize=0;expand=0;fontStyle=0;fillColor=none;strokeColor=inherit;" vertex="1" parent="vUQLPIok8WBu1ZQCvkCV-1">
          <mxGeometry y="81" width="270" height="45" as="geometry" />
        </mxCell>
        <mxCell id="vUQLPIok8WBu1ZQCvkCV-11" value="max" style="connectable=0;recursiveResize=0;strokeColor=inherit;fillColor=none;align=center;whiteSpace=wrap;html=1;" vertex="1" parent="vUQLPIok8WBu1ZQCvkCV-10">
          <mxGeometry width="135" height="45" as="geometry">
            <mxRectangle width="135" height="45" as="alternateBounds" />
          </mxGeometry>
        </mxCell>
        <mxCell id="vUQLPIok8WBu1ZQCvkCV-12" value="最大值" style="connectable=0;recursiveResize=0;strokeColor=inherit;fillColor=none;align=center;whiteSpace=wrap;html=1;" vertex="1" parent="vUQLPIok8WBu1ZQCvkCV-10">
          <mxGeometry x="135" width="135" height="45" as="geometry">
            <mxRectangle width="135" height="45" as="alternateBounds" />
          </mxGeometry>
        </mxCell>
        <mxCell id="vUQLPIok8WBu1ZQCvkCV-14" style="shape=tableRow;horizontal=0;startSize=0;swimlaneHead=0;swimlaneBody=0;top=0;left=0;bottom=0;right=0;dropTarget=0;collapsible=0;recursiveResize=0;expand=0;fontStyle=0;fillColor=none;strokeColor=inherit;" vertex="1" parent="vUQLPIok8WBu1ZQCvkCV-1">
          <mxGeometry y="126" width="270" height="45" as="geometry" />
        </mxCell>
        <mxCell id="vUQLPIok8WBu1ZQCvkCV-15" value="min" style="connectable=0;recursiveResize=0;strokeColor=inherit;fillColor=none;align=center;whiteSpace=wrap;html=1;" vertex="1" parent="vUQLPIok8WBu1ZQCvkCV-14">
          <mxGeometry width="135" height="45" as="geometry">
            <mxRectangle width="135" height="45" as="alternateBounds" />
          </mxGeometry>
        </mxCell>
        <mxCell id="vUQLPIok8WBu1ZQCvkCV-16" value="最小值" style="connectable=0;recursiveResize=0;strokeColor=inherit;fillColor=none;align=center;whiteSpace=wrap;html=1;" vertex="1" parent="vUQLPIok8WBu1ZQCvkCV-14">
          <mxGeometry x="135" width="135" height="45" as="geometry">
            <mxRectangle width="135" height="45" as="alternateBounds" />
          </mxGeometry>
        </mxCell>
        <mxCell id="vUQLPIok8WBu1ZQCvkCV-20" style="shape=tableRow;horizontal=0;startSize=0;swimlaneHead=0;swimlaneBody=0;top=0;left=0;bottom=0;right=0;dropTarget=0;collapsible=0;recursiveResize=0;expand=0;fontStyle=0;fillColor=none;strokeColor=inherit;" vertex="1" parent="vUQLPIok8WBu1ZQCvkCV-1">
          <mxGeometry y="171" width="270" height="45" as="geometry" />
        </mxCell>
        <mxCell id="vUQLPIok8WBu1ZQCvkCV-21" value="avg" style="connectable=0;recursiveResize=0;strokeColor=inherit;fillColor=none;align=center;whiteSpace=wrap;html=1;" vertex="1" parent="vUQLPIok8WBu1ZQCvkCV-20">
          <mxGeometry width="135" height="45" as="geometry">
            <mxRectangle width="135" height="45" as="alternateBounds" />
          </mxGeometry>
        </mxCell>
        <mxCell id="vUQLPIok8WBu1ZQCvkCV-22" value="平均值" style="connectable=0;recursiveResize=0;strokeColor=inherit;fillColor=none;align=center;whiteSpace=wrap;html=1;" vertex="1" parent="vUQLPIok8WBu1ZQCvkCV-20">
          <mxGeometry x="135" width="135" height="45" as="geometry">
            <mxRectangle width="135" height="45" as="alternateBounds" />
          </mxGeometry>
        </mxCell>
        <mxCell id="vUQLPIok8WBu1ZQCvkCV-23" style="shape=tableRow;horizontal=0;startSize=0;swimlaneHead=0;swimlaneBody=0;top=0;left=0;bottom=0;right=0;dropTarget=0;collapsible=0;recursiveResize=0;expand=0;fontStyle=0;fillColor=none;strokeColor=inherit;" vertex="1" parent="vUQLPIok8WBu1ZQCvkCV-1">
          <mxGeometry y="216" width="270" height="45" as="geometry" />
        </mxCell>
        <mxCell id="vUQLPIok8WBu1ZQCvkCV-24" value="sum" style="connectable=0;recursiveResize=0;strokeColor=inherit;fillColor=none;align=center;whiteSpace=wrap;html=1;" vertex="1" parent="vUQLPIok8WBu1ZQCvkCV-23">
          <mxGeometry width="135" height="45" as="geometry">
            <mxRectangle width="135" height="45" as="alternateBounds" />
          </mxGeometry>
        </mxCell>
        <mxCell id="vUQLPIok8WBu1ZQCvkCV-25" value="求和" style="connectable=0;recursiveResize=0;strokeColor=inherit;fillColor=none;align=center;whiteSpace=wrap;html=1;" vertex="1" parent="vUQLPIok8WBu1ZQCvkCV-23">
          <mxGeometry x="135" width="135" height="45" as="geometry">
            <mxRectangle width="135" height="45" as="alternateBounds" />
          </mxGeometry>
        </mxCell>
      </root>
    </mxGraphModel>
  </diagram>
  <diagram id="FRjTei78VXZw042VcDVc" name="书写顺序">
    <mxGraphModel dx="511" dy="387" grid="0" gridSize="10" guides="1" tooltips="1" connect="1" arrows="1" fold="1" page="1" pageScale="1" pageWidth="1920" pageHeight="1200" math="0" shadow="0">
      <root>
        <mxCell id="0" />
        <mxCell id="1" parent="0" />
        <mxCell id="GDZwzMTBd96xxGdtlwS3-1" value="&lt;font color=&quot;#3333ff&quot;&gt;SELECT&lt;br&gt;&lt;br&gt;&lt;br&gt;FROM&lt;br&gt;&lt;br&gt;&lt;br&gt;WHERE&lt;br&gt;&lt;br&gt;&lt;br&gt;GROUP BY&lt;br&gt;&lt;br&gt;&lt;br&gt;HAVING&lt;br&gt;&lt;br&gt;&lt;br&gt;ORDER BY&lt;br&gt;&lt;br&gt;&lt;br&gt;LIMIT&lt;/font&gt;" style="text;html=1;strokeColor=none;fillColor=none;align=left;verticalAlign=middle;whiteSpace=wrap;rounded=0;movable=0;resizable=0;rotatable=0;deletable=0;editable=0;locked=1;connectable=0;" vertex="1" parent="1">
          <mxGeometry x="67" y="73" width="131" height="323" as="geometry" />
        </mxCell>
        <mxCell id="GDZwzMTBd96xxGdtlwS3-2" value="字段列表&lt;br&gt;&lt;br&gt;&lt;br&gt;表名&lt;br&gt;&lt;br&gt;&lt;br&gt;条件列表&lt;br&gt;&lt;br&gt;&lt;br&gt;分组字段列表&lt;br&gt;&lt;br&gt;&lt;br&gt;分组后条件列表&lt;br&gt;&lt;br&gt;&lt;br&gt;排序字段列表&lt;br&gt;&lt;br&gt;&lt;br&gt;分页参数" style="text;html=1;strokeColor=none;fillColor=none;align=left;verticalAlign=middle;whiteSpace=wrap;rounded=0;movable=1;resizable=1;rotatable=1;deletable=1;editable=1;locked=0;connectable=1;" vertex="1" parent="1">
          <mxGeometry x="126" y="97" width="114" height="319" as="geometry" />
        </mxCell>
        <mxCell id="GDZwzMTBd96xxGdtlwS3-3" value="字段名 [&lt;font color=&quot;#3333ff&quot;&gt;AS&lt;/font&gt;] 别名&lt;br&gt;&lt;br&gt;&lt;br&gt;&lt;br&gt;&lt;br&gt;&lt;br&gt;&amp;gt; &amp;gt;= &amp;lt; &amp;lt;= = &amp;lt;&amp;gt; like between...and in and or&amp;nbsp;&lt;br&gt;&lt;br&gt;&lt;br&gt;分组之前过滤&lt;br&gt;&lt;br&gt;&lt;br&gt;分组之后过滤&lt;br&gt;&lt;br&gt;&lt;br&gt;升序 ASC，降序 DESC&lt;br&gt;&lt;br&gt;&lt;br&gt;起始索引 (从0开始)，每页展示记录数" style="text;html=1;strokeColor=none;fillColor=none;align=left;verticalAlign=middle;whiteSpace=wrap;rounded=0;" vertex="1" parent="1">
          <mxGeometry x="274" y="109" width="243" height="298" as="geometry" />
        </mxCell>
        <mxCell id="GDZwzMTBd96xxGdtlwS3-5" style="edgeStyle=orthogonalEdgeStyle;rounded=0;orthogonalLoop=1;jettySize=auto;html=1;" edge="1" parent="1" source="GDZwzMTBd96xxGdtlwS3-4">
          <mxGeometry relative="1" as="geometry">
            <mxPoint x="254" y="126" as="targetPoint" />
          </mxGeometry>
        </mxCell>
        <mxCell id="GDZwzMTBd96xxGdtlwS3-4" value="" style="rounded=0;whiteSpace=wrap;html=1;fillColor=none;" vertex="1" parent="1">
          <mxGeometry x="122" y="114" width="60" height="25" as="geometry" />
        </mxCell>
        <mxCell id="GDZwzMTBd96xxGdtlwS3-15" style="edgeStyle=orthogonalEdgeStyle;rounded=0;orthogonalLoop=1;jettySize=auto;html=1;" edge="1" parent="1" source="GDZwzMTBd96xxGdtlwS3-6">
          <mxGeometry relative="1" as="geometry">
            <mxPoint x="256.72003173828125" y="212.5" as="targetPoint" />
          </mxGeometry>
        </mxCell>
        <mxCell id="GDZwzMTBd96xxGdtlwS3-6" value="" style="rounded=0;whiteSpace=wrap;html=1;fillColor=none;" vertex="1" parent="1">
          <mxGeometry x="122" y="200" width="60" height="25" as="geometry" />
        </mxCell>
        <mxCell id="GDZwzMTBd96xxGdtlwS3-17" style="edgeStyle=orthogonalEdgeStyle;rounded=0;orthogonalLoop=1;jettySize=auto;html=1;" edge="1" parent="1" source="GDZwzMTBd96xxGdtlwS3-9">
          <mxGeometry relative="1" as="geometry">
            <mxPoint x="259.2799987792969" y="299.5" as="targetPoint" />
          </mxGeometry>
        </mxCell>
        <mxCell id="GDZwzMTBd96xxGdtlwS3-9" value="" style="rounded=0;whiteSpace=wrap;html=1;fillColor=none;" vertex="1" parent="1">
          <mxGeometry x="122" y="287" width="96" height="25" as="geometry" />
        </mxCell>
        <mxCell id="GDZwzMTBd96xxGdtlwS3-18" style="edgeStyle=orthogonalEdgeStyle;rounded=0;orthogonalLoop=1;jettySize=auto;html=1;" edge="1" parent="1" source="GDZwzMTBd96xxGdtlwS3-10">
          <mxGeometry relative="1" as="geometry">
            <mxPoint x="260.55999755859375" y="343.5" as="targetPoint" />
          </mxGeometry>
        </mxCell>
        <mxCell id="GDZwzMTBd96xxGdtlwS3-10" value="" style="rounded=0;whiteSpace=wrap;html=1;fillColor=none;" vertex="1" parent="1">
          <mxGeometry x="122" y="331" width="84" height="25" as="geometry" />
        </mxCell>
        <mxCell id="GDZwzMTBd96xxGdtlwS3-19" style="edgeStyle=orthogonalEdgeStyle;rounded=0;orthogonalLoop=1;jettySize=auto;html=1;" edge="1" parent="1" source="GDZwzMTBd96xxGdtlwS3-11">
          <mxGeometry relative="1" as="geometry">
            <mxPoint x="262.47998046875" y="385.5" as="targetPoint" />
          </mxGeometry>
        </mxCell>
        <mxCell id="GDZwzMTBd96xxGdtlwS3-11" value="" style="rounded=0;whiteSpace=wrap;html=1;fillColor=none;" vertex="1" parent="1">
          <mxGeometry x="122" y="373" width="58" height="25" as="geometry" />
        </mxCell>
        <mxCell id="GDZwzMTBd96xxGdtlwS3-20" value="" style="endArrow=classic;html=1;rounded=0;" edge="1" parent="1">
          <mxGeometry width="50" height="50" relative="1" as="geometry">
            <mxPoint x="182" y="213" as="sourcePoint" />
            <mxPoint x="259" y="246" as="targetPoint" />
          </mxGeometry>
        </mxCell>
      </root>
    </mxGraphModel>
  </diagram>
  <diagram id="shybwIFjkk_fHgKesnyl" name="常见字符串函数">
    <mxGraphModel dx="743" dy="393" grid="0" gridSize="10" guides="1" tooltips="1" connect="1" arrows="1" fold="1" page="1" pageScale="1" pageWidth="1920" pageHeight="1200" math="0" shadow="0">
      <root>
        <mxCell id="0" />
        <mxCell id="1" parent="0" />
        <mxCell id="uXD-AHopu5pUJSeDPUAk-1" value="" style="childLayout=tableLayout;recursiveResize=0;shadow=0;fillColor=none;" vertex="1" parent="1">
          <mxGeometry x="280" y="138" width="519.8101196289062" height="363" as="geometry" />
        </mxCell>
        <mxCell id="uXD-AHopu5pUJSeDPUAk-2" value="" style="shape=tableRow;horizontal=0;startSize=0;swimlaneHead=0;swimlaneBody=0;top=0;left=0;bottom=0;right=0;dropTarget=0;collapsible=0;recursiveResize=0;expand=0;fontStyle=0;fillColor=none;strokeColor=inherit;" vertex="1" parent="uXD-AHopu5pUJSeDPUAk-1">
          <mxGeometry width="519.8101196289062" height="35" as="geometry" />
        </mxCell>
        <mxCell id="uXD-AHopu5pUJSeDPUAk-3" value="函数" style="connectable=0;recursiveResize=0;strokeColor=inherit;fillColor=#9999FF;align=center;whiteSpace=wrap;html=1;fontStyle=1" vertex="1" parent="uXD-AHopu5pUJSeDPUAk-2">
          <mxGeometry width="144" height="35" as="geometry">
            <mxRectangle width="144" height="35" as="alternateBounds" />
          </mxGeometry>
        </mxCell>
        <mxCell id="uXD-AHopu5pUJSeDPUAk-4" value="功能" style="connectable=0;recursiveResize=0;strokeColor=inherit;fillColor=#9999FF;align=center;whiteSpace=wrap;html=1;fontStyle=1" vertex="1" parent="uXD-AHopu5pUJSeDPUAk-2">
          <mxGeometry x="144" width="376" height="35" as="geometry">
            <mxRectangle width="376" height="35" as="alternateBounds" />
          </mxGeometry>
        </mxCell>
        <mxCell id="uXD-AHopu5pUJSeDPUAk-6" style="shape=tableRow;horizontal=0;startSize=0;swimlaneHead=0;swimlaneBody=0;top=0;left=0;bottom=0;right=0;dropTarget=0;collapsible=0;recursiveResize=0;expand=0;fontStyle=0;fillColor=none;strokeColor=inherit;" vertex="1" parent="uXD-AHopu5pUJSeDPUAk-1">
          <mxGeometry y="35" width="519.8101196289062" height="46" as="geometry" />
        </mxCell>
        <mxCell id="uXD-AHopu5pUJSeDPUAk-7" value="CONCAT(S1,S2,...Sn)" style="connectable=0;recursiveResize=0;strokeColor=inherit;fillColor=none;align=center;whiteSpace=wrap;html=1;" vertex="1" parent="uXD-AHopu5pUJSeDPUAk-6">
          <mxGeometry width="144" height="46" as="geometry">
            <mxRectangle width="144" height="46" as="alternateBounds" />
          </mxGeometry>
        </mxCell>
        <mxCell id="uXD-AHopu5pUJSeDPUAk-8" value="字符串拼接，将S1，S2，… Sn拼接成一个字符串" style="connectable=0;recursiveResize=0;strokeColor=inherit;fillColor=none;align=center;whiteSpace=wrap;html=1;" vertex="1" parent="uXD-AHopu5pUJSeDPUAk-6">
          <mxGeometry x="144" width="376" height="46" as="geometry">
            <mxRectangle width="376" height="46" as="alternateBounds" />
          </mxGeometry>
        </mxCell>
        <mxCell id="uXD-AHopu5pUJSeDPUAk-10" style="shape=tableRow;horizontal=0;startSize=0;swimlaneHead=0;swimlaneBody=0;top=0;left=0;bottom=0;right=0;dropTarget=0;collapsible=0;recursiveResize=0;expand=0;fontStyle=0;fillColor=none;strokeColor=inherit;" vertex="1" parent="uXD-AHopu5pUJSeDPUAk-1">
          <mxGeometry y="81" width="519.8101196289062" height="47" as="geometry" />
        </mxCell>
        <mxCell id="uXD-AHopu5pUJSeDPUAk-11" value="LOWER(str)" style="connectable=0;recursiveResize=0;strokeColor=inherit;fillColor=none;align=center;whiteSpace=wrap;html=1;" vertex="1" parent="uXD-AHopu5pUJSeDPUAk-10">
          <mxGeometry width="144" height="47" as="geometry">
            <mxRectangle width="144" height="47" as="alternateBounds" />
          </mxGeometry>
        </mxCell>
        <mxCell id="uXD-AHopu5pUJSeDPUAk-12" value="将字符串str全部转为小写" style="connectable=0;recursiveResize=0;strokeColor=inherit;fillColor=none;align=center;whiteSpace=wrap;html=1;" vertex="1" parent="uXD-AHopu5pUJSeDPUAk-10">
          <mxGeometry x="144" width="376" height="47" as="geometry">
            <mxRectangle width="376" height="47" as="alternateBounds" />
          </mxGeometry>
        </mxCell>
        <mxCell id="uXD-AHopu5pUJSeDPUAk-14" style="shape=tableRow;horizontal=0;startSize=0;swimlaneHead=0;swimlaneBody=0;top=0;left=0;bottom=0;right=0;dropTarget=0;collapsible=0;recursiveResize=0;expand=0;fontStyle=0;fillColor=none;strokeColor=inherit;" vertex="1" parent="uXD-AHopu5pUJSeDPUAk-1">
          <mxGeometry y="128" width="519.8101196289062" height="47" as="geometry" />
        </mxCell>
        <mxCell id="uXD-AHopu5pUJSeDPUAk-15" value="UPPER(str)" style="connectable=0;recursiveResize=0;strokeColor=inherit;fillColor=none;align=center;whiteSpace=wrap;html=1;" vertex="1" parent="uXD-AHopu5pUJSeDPUAk-14">
          <mxGeometry width="144" height="47" as="geometry">
            <mxRectangle width="144" height="47" as="alternateBounds" />
          </mxGeometry>
        </mxCell>
        <mxCell id="uXD-AHopu5pUJSeDPUAk-16" value="将字符串str全部转为大写" style="connectable=0;recursiveResize=0;strokeColor=inherit;fillColor=none;align=center;whiteSpace=wrap;html=1;" vertex="1" parent="uXD-AHopu5pUJSeDPUAk-14">
          <mxGeometry x="144" width="376" height="47" as="geometry">
            <mxRectangle width="376" height="47" as="alternateBounds" />
          </mxGeometry>
        </mxCell>
        <mxCell id="uXD-AHopu5pUJSeDPUAk-20" style="shape=tableRow;horizontal=0;startSize=0;swimlaneHead=0;swimlaneBody=0;top=0;left=0;bottom=0;right=0;dropTarget=0;collapsible=0;recursiveResize=0;expand=0;fontStyle=0;fillColor=none;strokeColor=inherit;" vertex="1" parent="uXD-AHopu5pUJSeDPUAk-1">
          <mxGeometry y="175" width="519.8101196289062" height="47" as="geometry" />
        </mxCell>
        <mxCell id="uXD-AHopu5pUJSeDPUAk-21" value="RPAD(str,n,pad)" style="connectable=0;recursiveResize=0;strokeColor=inherit;fillColor=none;align=center;whiteSpace=wrap;html=1;" vertex="1" parent="uXD-AHopu5pUJSeDPUAk-20">
          <mxGeometry width="144" height="47" as="geometry">
            <mxRectangle width="144" height="47" as="alternateBounds" />
          </mxGeometry>
        </mxCell>
        <mxCell id="uXD-AHopu5pUJSeDPUAk-22" value="右填充，用字符串pad对str的右边进行填充，达到n个字符 串长度" style="connectable=0;recursiveResize=0;strokeColor=inherit;fillColor=none;align=center;whiteSpace=wrap;html=1;" vertex="1" parent="uXD-AHopu5pUJSeDPUAk-20">
          <mxGeometry x="144" width="376" height="47" as="geometry">
            <mxRectangle width="376" height="47" as="alternateBounds" />
          </mxGeometry>
        </mxCell>
        <mxCell id="uXD-AHopu5pUJSeDPUAk-17" style="shape=tableRow;horizontal=0;startSize=0;swimlaneHead=0;swimlaneBody=0;top=0;left=0;bottom=0;right=0;dropTarget=0;collapsible=0;recursiveResize=0;expand=0;fontStyle=0;fillColor=none;strokeColor=inherit;" vertex="1" parent="uXD-AHopu5pUJSeDPUAk-1">
          <mxGeometry y="222" width="519.8101196289062" height="47" as="geometry" />
        </mxCell>
        <mxCell id="uXD-AHopu5pUJSeDPUAk-18" value="LPAD(str,n,pad)" style="connectable=0;recursiveResize=0;strokeColor=inherit;fillColor=none;align=center;whiteSpace=wrap;html=1;" vertex="1" parent="uXD-AHopu5pUJSeDPUAk-17">
          <mxGeometry width="144" height="47" as="geometry">
            <mxRectangle width="144" height="47" as="alternateBounds" />
          </mxGeometry>
        </mxCell>
        <mxCell id="uXD-AHopu5pUJSeDPUAk-19" value="左填充，用字符串pad对str的左边进行填充，达到n个字符 串长度" style="connectable=0;recursiveResize=0;strokeColor=inherit;fillColor=none;align=center;whiteSpace=wrap;html=1;" vertex="1" parent="uXD-AHopu5pUJSeDPUAk-17">
          <mxGeometry x="144" width="376" height="47" as="geometry">
            <mxRectangle width="376" height="47" as="alternateBounds" />
          </mxGeometry>
        </mxCell>
        <mxCell id="uXD-AHopu5pUJSeDPUAk-23" style="shape=tableRow;horizontal=0;startSize=0;swimlaneHead=0;swimlaneBody=0;top=0;left=0;bottom=0;right=0;dropTarget=0;collapsible=0;recursiveResize=0;expand=0;fontStyle=0;fillColor=none;strokeColor=inherit;" vertex="1" parent="uXD-AHopu5pUJSeDPUAk-1">
          <mxGeometry y="269" width="519.8101196289062" height="47" as="geometry" />
        </mxCell>
        <mxCell id="uXD-AHopu5pUJSeDPUAk-24" value="TRIM(str)" style="connectable=0;recursiveResize=0;strokeColor=inherit;fillColor=none;align=center;whiteSpace=wrap;html=1;" vertex="1" parent="uXD-AHopu5pUJSeDPUAk-23">
          <mxGeometry width="144" height="47" as="geometry">
            <mxRectangle width="144" height="47" as="alternateBounds" />
          </mxGeometry>
        </mxCell>
        <mxCell id="uXD-AHopu5pUJSeDPUAk-25" value="去掉字符串头部和尾部的空格" style="connectable=0;recursiveResize=0;strokeColor=inherit;fillColor=none;align=center;whiteSpace=wrap;html=1;" vertex="1" parent="uXD-AHopu5pUJSeDPUAk-23">
          <mxGeometry x="144" width="376" height="47" as="geometry">
            <mxRectangle width="376" height="47" as="alternateBounds" />
          </mxGeometry>
        </mxCell>
        <mxCell id="uXD-AHopu5pUJSeDPUAk-26" style="shape=tableRow;horizontal=0;startSize=0;swimlaneHead=0;swimlaneBody=0;top=0;left=0;bottom=0;right=0;dropTarget=0;collapsible=0;recursiveResize=0;expand=0;fontStyle=0;fillColor=none;strokeColor=inherit;" vertex="1" parent="uXD-AHopu5pUJSeDPUAk-1">
          <mxGeometry y="316" width="519.8101196289062" height="47" as="geometry" />
        </mxCell>
        <mxCell id="uXD-AHopu5pUJSeDPUAk-27" value="SUBSTRING(str,start,len)" style="connectable=0;recursiveResize=0;strokeColor=inherit;fillColor=none;align=center;whiteSpace=wrap;html=1;" vertex="1" parent="uXD-AHopu5pUJSeDPUAk-26">
          <mxGeometry width="144" height="47" as="geometry">
            <mxRectangle width="144" height="47" as="alternateBounds" />
          </mxGeometry>
        </mxCell>
        <mxCell id="uXD-AHopu5pUJSeDPUAk-28" value="返回从字符串str从start位置起的len个长度的字符串" style="connectable=0;recursiveResize=0;strokeColor=inherit;fillColor=none;align=center;whiteSpace=wrap;html=1;" vertex="1" parent="uXD-AHopu5pUJSeDPUAk-26">
          <mxGeometry x="144" width="376" height="47" as="geometry">
            <mxRectangle width="376" height="47" as="alternateBounds" />
          </mxGeometry>
        </mxCell>
      </root>
    </mxGraphModel>
  </diagram>
  <diagram id="Lq_0Shf4AeO79gO82mzl" name="常见数值函数">
    <mxGraphModel dx="511" dy="387" grid="0" gridSize="10" guides="1" tooltips="1" connect="1" arrows="1" fold="1" page="1" pageScale="1" pageWidth="1920" pageHeight="1200" math="0" shadow="0">
      <root>
        <mxCell id="0" />
        <mxCell id="1" parent="0" />
        <mxCell id="ssnIFYqjYVwUdE8Tb8jK-1" value="" style="childLayout=tableLayout;recursiveResize=0;shadow=0;fillColor=none;" vertex="1" parent="1">
          <mxGeometry x="83" y="56" width="348" height="269" as="geometry" />
        </mxCell>
        <mxCell id="ssnIFYqjYVwUdE8Tb8jK-2" value="" style="shape=tableRow;horizontal=0;startSize=0;swimlaneHead=0;swimlaneBody=0;top=0;left=0;bottom=0;right=0;dropTarget=0;collapsible=0;recursiveResize=0;expand=0;fontStyle=0;fillColor=none;strokeColor=inherit;" vertex="1" parent="ssnIFYqjYVwUdE8Tb8jK-1">
          <mxGeometry width="348" height="35" as="geometry" />
        </mxCell>
        <mxCell id="ssnIFYqjYVwUdE8Tb8jK-3" value="函数" style="connectable=0;recursiveResize=0;strokeColor=inherit;fillColor=#FFFF99;align=center;whiteSpace=wrap;html=1;fontStyle=1" vertex="1" parent="ssnIFYqjYVwUdE8Tb8jK-2">
          <mxGeometry width="113" height="35" as="geometry">
            <mxRectangle width="113" height="35" as="alternateBounds" />
          </mxGeometry>
        </mxCell>
        <mxCell id="ssnIFYqjYVwUdE8Tb8jK-4" value="功能" style="connectable=0;recursiveResize=0;strokeColor=inherit;fillColor=#FFFF99;align=center;whiteSpace=wrap;html=1;fontStyle=1" vertex="1" parent="ssnIFYqjYVwUdE8Tb8jK-2">
          <mxGeometry x="113" width="235" height="35" as="geometry">
            <mxRectangle width="235" height="35" as="alternateBounds" />
          </mxGeometry>
        </mxCell>
        <mxCell id="ssnIFYqjYVwUdE8Tb8jK-6" style="shape=tableRow;horizontal=0;startSize=0;swimlaneHead=0;swimlaneBody=0;top=0;left=0;bottom=0;right=0;dropTarget=0;collapsible=0;recursiveResize=0;expand=0;fontStyle=0;fillColor=none;strokeColor=inherit;" vertex="1" parent="ssnIFYqjYVwUdE8Tb8jK-1">
          <mxGeometry y="35" width="348" height="46" as="geometry" />
        </mxCell>
        <mxCell id="ssnIFYqjYVwUdE8Tb8jK-7" value="CEIL(x)" style="connectable=0;recursiveResize=0;strokeColor=inherit;fillColor=none;align=center;whiteSpace=wrap;html=1;" vertex="1" parent="ssnIFYqjYVwUdE8Tb8jK-6">
          <mxGeometry width="113" height="46" as="geometry">
            <mxRectangle width="113" height="46" as="alternateBounds" />
          </mxGeometry>
        </mxCell>
        <mxCell id="ssnIFYqjYVwUdE8Tb8jK-8" value="向上取整" style="connectable=0;recursiveResize=0;strokeColor=inherit;fillColor=none;align=center;whiteSpace=wrap;html=1;" vertex="1" parent="ssnIFYqjYVwUdE8Tb8jK-6">
          <mxGeometry x="113" width="235" height="46" as="geometry">
            <mxRectangle width="235" height="46" as="alternateBounds" />
          </mxGeometry>
        </mxCell>
        <mxCell id="ssnIFYqjYVwUdE8Tb8jK-10" style="shape=tableRow;horizontal=0;startSize=0;swimlaneHead=0;swimlaneBody=0;top=0;left=0;bottom=0;right=0;dropTarget=0;collapsible=0;recursiveResize=0;expand=0;fontStyle=0;fillColor=none;strokeColor=inherit;" vertex="1" parent="ssnIFYqjYVwUdE8Tb8jK-1">
          <mxGeometry y="81" width="348" height="47" as="geometry" />
        </mxCell>
        <mxCell id="ssnIFYqjYVwUdE8Tb8jK-11" value="FLOOR(x)" style="connectable=0;recursiveResize=0;strokeColor=inherit;fillColor=none;align=center;whiteSpace=wrap;html=1;" vertex="1" parent="ssnIFYqjYVwUdE8Tb8jK-10">
          <mxGeometry width="113" height="47" as="geometry">
            <mxRectangle width="113" height="47" as="alternateBounds" />
          </mxGeometry>
        </mxCell>
        <mxCell id="ssnIFYqjYVwUdE8Tb8jK-12" value="向下取整" style="connectable=0;recursiveResize=0;strokeColor=inherit;fillColor=none;align=center;whiteSpace=wrap;html=1;" vertex="1" parent="ssnIFYqjYVwUdE8Tb8jK-10">
          <mxGeometry x="113" width="235" height="47" as="geometry">
            <mxRectangle width="235" height="47" as="alternateBounds" />
          </mxGeometry>
        </mxCell>
        <mxCell id="ssnIFYqjYVwUdE8Tb8jK-14" style="shape=tableRow;horizontal=0;startSize=0;swimlaneHead=0;swimlaneBody=0;top=0;left=0;bottom=0;right=0;dropTarget=0;collapsible=0;recursiveResize=0;expand=0;fontStyle=0;fillColor=none;strokeColor=inherit;" vertex="1" parent="ssnIFYqjYVwUdE8Tb8jK-1">
          <mxGeometry y="128" width="348" height="47" as="geometry" />
        </mxCell>
        <mxCell id="ssnIFYqjYVwUdE8Tb8jK-15" value="MOD(x,y)" style="connectable=0;recursiveResize=0;strokeColor=inherit;fillColor=none;align=center;whiteSpace=wrap;html=1;" vertex="1" parent="ssnIFYqjYVwUdE8Tb8jK-14">
          <mxGeometry width="113" height="47" as="geometry">
            <mxRectangle width="113" height="47" as="alternateBounds" />
          </mxGeometry>
        </mxCell>
        <mxCell id="ssnIFYqjYVwUdE8Tb8jK-16" value="返回x/y的模" style="connectable=0;recursiveResize=0;strokeColor=inherit;fillColor=none;align=center;whiteSpace=wrap;html=1;" vertex="1" parent="ssnIFYqjYVwUdE8Tb8jK-14">
          <mxGeometry x="113" width="235" height="47" as="geometry">
            <mxRectangle width="235" height="47" as="alternateBounds" />
          </mxGeometry>
        </mxCell>
        <mxCell id="ssnIFYqjYVwUdE8Tb8jK-17" style="shape=tableRow;horizontal=0;startSize=0;swimlaneHead=0;swimlaneBody=0;top=0;left=0;bottom=0;right=0;dropTarget=0;collapsible=0;recursiveResize=0;expand=0;fontStyle=0;fillColor=none;strokeColor=inherit;" vertex="1" parent="ssnIFYqjYVwUdE8Tb8jK-1">
          <mxGeometry y="175" width="348" height="47" as="geometry" />
        </mxCell>
        <mxCell id="ssnIFYqjYVwUdE8Tb8jK-18" value="RAND()" style="connectable=0;recursiveResize=0;strokeColor=inherit;fillColor=none;align=center;whiteSpace=wrap;html=1;" vertex="1" parent="ssnIFYqjYVwUdE8Tb8jK-17">
          <mxGeometry width="113" height="47" as="geometry">
            <mxRectangle width="113" height="47" as="alternateBounds" />
          </mxGeometry>
        </mxCell>
        <mxCell id="ssnIFYqjYVwUdE8Tb8jK-19" value="返回0~1内的随机数" style="connectable=0;recursiveResize=0;strokeColor=inherit;fillColor=none;align=center;whiteSpace=wrap;html=1;" vertex="1" parent="ssnIFYqjYVwUdE8Tb8jK-17">
          <mxGeometry x="113" width="235" height="47" as="geometry">
            <mxRectangle width="235" height="47" as="alternateBounds" />
          </mxGeometry>
        </mxCell>
        <mxCell id="ssnIFYqjYVwUdE8Tb8jK-20" style="shape=tableRow;horizontal=0;startSize=0;swimlaneHead=0;swimlaneBody=0;top=0;left=0;bottom=0;right=0;dropTarget=0;collapsible=0;recursiveResize=0;expand=0;fontStyle=0;fillColor=none;strokeColor=inherit;" vertex="1" parent="ssnIFYqjYVwUdE8Tb8jK-1">
          <mxGeometry y="222" width="348" height="47" as="geometry" />
        </mxCell>
        <mxCell id="ssnIFYqjYVwUdE8Tb8jK-21" value="ROUND(x,y)" style="connectable=0;recursiveResize=0;strokeColor=inherit;fillColor=none;align=center;whiteSpace=wrap;html=1;" vertex="1" parent="ssnIFYqjYVwUdE8Tb8jK-20">
          <mxGeometry width="113" height="47" as="geometry">
            <mxRectangle width="113" height="47" as="alternateBounds" />
          </mxGeometry>
        </mxCell>
        <mxCell id="ssnIFYqjYVwUdE8Tb8jK-22" value="求参数x的四舍五入的值，保留y位小数" style="connectable=0;recursiveResize=0;strokeColor=inherit;fillColor=none;align=center;whiteSpace=wrap;html=1;" vertex="1" parent="ssnIFYqjYVwUdE8Tb8jK-20">
          <mxGeometry x="113" width="235" height="47" as="geometry">
            <mxRectangle width="235" height="47" as="alternateBounds" />
          </mxGeometry>
        </mxCell>
      </root>
    </mxGraphModel>
  </diagram>
  <diagram id="nTDaVI7HuhtiM4hF62NX" name="流程函数">
    <mxGraphModel dx="743" dy="393" grid="0" gridSize="10" guides="1" tooltips="1" connect="1" arrows="1" fold="1" page="1" pageScale="1" pageWidth="1920" pageHeight="1200" math="0" shadow="0">
      <root>
        <mxCell id="0" />
        <mxCell id="1" parent="0" />
        <mxCell id="7aDyFeXtJ-Z812SFncce-1" value="" style="childLayout=tableLayout;recursiveResize=0;shadow=0;fillColor=none;" parent="1" vertex="1">
          <mxGeometry x="102" y="168" width="701.0400695800781" height="222" as="geometry" />
        </mxCell>
        <mxCell id="7aDyFeXtJ-Z812SFncce-2" value="" style="shape=tableRow;horizontal=0;startSize=0;swimlaneHead=0;swimlaneBody=0;top=0;left=0;bottom=0;right=0;dropTarget=0;collapsible=0;recursiveResize=0;expand=0;fontStyle=0;fillColor=none;strokeColor=inherit;" parent="7aDyFeXtJ-Z812SFncce-1" vertex="1">
          <mxGeometry width="701.0400695800781" height="35" as="geometry" />
        </mxCell>
        <mxCell id="7aDyFeXtJ-Z812SFncce-3" value="函数" style="connectable=0;recursiveResize=0;strokeColor=inherit;fillColor=#FFCCFF;align=center;whiteSpace=wrap;html=1;fontStyle=1" parent="7aDyFeXtJ-Z812SFncce-2" vertex="1">
          <mxGeometry width="364" height="35" as="geometry">
            <mxRectangle width="364" height="35" as="alternateBounds" />
          </mxGeometry>
        </mxCell>
        <mxCell id="7aDyFeXtJ-Z812SFncce-4" value="功能" style="connectable=0;recursiveResize=0;strokeColor=inherit;fillColor=#FFCCFF;align=center;whiteSpace=wrap;html=1;fontStyle=1" parent="7aDyFeXtJ-Z812SFncce-2" vertex="1">
          <mxGeometry x="364" width="337" height="35" as="geometry">
            <mxRectangle width="337" height="35" as="alternateBounds" />
          </mxGeometry>
        </mxCell>
        <mxCell id="7aDyFeXtJ-Z812SFncce-6" style="shape=tableRow;horizontal=0;startSize=0;swimlaneHead=0;swimlaneBody=0;top=0;left=0;bottom=0;right=0;dropTarget=0;collapsible=0;recursiveResize=0;expand=0;fontStyle=0;fillColor=none;strokeColor=inherit;" parent="7aDyFeXtJ-Z812SFncce-1" vertex="1">
          <mxGeometry y="35" width="701.0400695800781" height="46" as="geometry" />
        </mxCell>
        <mxCell id="7aDyFeXtJ-Z812SFncce-7" value="IF(value , t , f)" style="connectable=0;recursiveResize=0;strokeColor=inherit;fillColor=none;align=center;whiteSpace=wrap;html=1;" parent="7aDyFeXtJ-Z812SFncce-6" vertex="1">
          <mxGeometry width="364" height="46" as="geometry">
            <mxRectangle width="364" height="46" as="alternateBounds" />
          </mxGeometry>
        </mxCell>
        <mxCell id="7aDyFeXtJ-Z812SFncce-8" value="如果value为true，则返回t，否则返回 f" style="connectable=0;recursiveResize=0;strokeColor=inherit;fillColor=none;align=center;whiteSpace=wrap;html=1;" parent="7aDyFeXtJ-Z812SFncce-6" vertex="1">
          <mxGeometry x="364" width="337" height="46" as="geometry">
            <mxRectangle width="337" height="46" as="alternateBounds" />
          </mxGeometry>
        </mxCell>
        <mxCell id="7aDyFeXtJ-Z812SFncce-10" style="shape=tableRow;horizontal=0;startSize=0;swimlaneHead=0;swimlaneBody=0;top=0;left=0;bottom=0;right=0;dropTarget=0;collapsible=0;recursiveResize=0;expand=0;fontStyle=0;fillColor=none;strokeColor=inherit;" parent="7aDyFeXtJ-Z812SFncce-1" vertex="1">
          <mxGeometry y="81" width="701.0400695800781" height="47" as="geometry" />
        </mxCell>
        <mxCell id="7aDyFeXtJ-Z812SFncce-11" value="IFNULL(value1 , value2)" style="connectable=0;recursiveResize=0;strokeColor=inherit;fillColor=none;align=center;whiteSpace=wrap;html=1;" parent="7aDyFeXtJ-Z812SFncce-10" vertex="1">
          <mxGeometry width="364" height="47" as="geometry">
            <mxRectangle width="364" height="47" as="alternateBounds" />
          </mxGeometry>
        </mxCell>
        <mxCell id="7aDyFeXtJ-Z812SFncce-12" value="如果value1不为空，返回value1，否则 返回value2" style="connectable=0;recursiveResize=0;strokeColor=inherit;fillColor=none;align=center;whiteSpace=wrap;html=1;" parent="7aDyFeXtJ-Z812SFncce-10" vertex="1">
          <mxGeometry x="364" width="337" height="47" as="geometry">
            <mxRectangle width="337" height="47" as="alternateBounds" />
          </mxGeometry>
        </mxCell>
        <mxCell id="7aDyFeXtJ-Z812SFncce-14" style="shape=tableRow;horizontal=0;startSize=0;swimlaneHead=0;swimlaneBody=0;top=0;left=0;bottom=0;right=0;dropTarget=0;collapsible=0;recursiveResize=0;expand=0;fontStyle=0;fillColor=none;strokeColor=inherit;" parent="7aDyFeXtJ-Z812SFncce-1" vertex="1">
          <mxGeometry y="128" width="701.0400695800781" height="47" as="geometry" />
        </mxCell>
        <mxCell id="7aDyFeXtJ-Z812SFncce-15" value="CASE WHEN [ val1 ] THEN [res1] … ELSE [ default ] END" style="connectable=0;recursiveResize=0;strokeColor=inherit;fillColor=none;align=center;whiteSpace=wrap;html=1;" parent="7aDyFeXtJ-Z812SFncce-14" vertex="1">
          <mxGeometry width="364" height="47" as="geometry">
            <mxRectangle width="364" height="47" as="alternateBounds" />
          </mxGeometry>
        </mxCell>
        <mxCell id="7aDyFeXtJ-Z812SFncce-16" value="如果val1为true，返回res1，… 否 则返回default默认值" style="connectable=0;recursiveResize=0;strokeColor=inherit;fillColor=none;align=center;whiteSpace=wrap;html=1;" parent="7aDyFeXtJ-Z812SFncce-14" vertex="1">
          <mxGeometry x="364" width="337" height="47" as="geometry">
            <mxRectangle width="337" height="47" as="alternateBounds" />
          </mxGeometry>
        </mxCell>
        <mxCell id="7aDyFeXtJ-Z812SFncce-17" style="shape=tableRow;horizontal=0;startSize=0;swimlaneHead=0;swimlaneBody=0;top=0;left=0;bottom=0;right=0;dropTarget=0;collapsible=0;recursiveResize=0;expand=0;fontStyle=0;fillColor=none;strokeColor=inherit;" parent="7aDyFeXtJ-Z812SFncce-1" vertex="1">
          <mxGeometry y="175" width="701.0400695800781" height="47" as="geometry" />
        </mxCell>
        <mxCell id="7aDyFeXtJ-Z812SFncce-18" value="CASE [ expr ] WHEN [ val1 ] THEN [res1] … ELSE [ default ] END" style="connectable=0;recursiveResize=0;strokeColor=inherit;fillColor=none;align=center;whiteSpace=wrap;html=1;" parent="7aDyFeXtJ-Z812SFncce-17" vertex="1">
          <mxGeometry width="364" height="47" as="geometry">
            <mxRectangle width="364" height="47" as="alternateBounds" />
          </mxGeometry>
        </mxCell>
        <mxCell id="7aDyFeXtJ-Z812SFncce-19" value="如果expr的值等于val1，返回 res1，… 否则返回default默认值" style="connectable=0;recursiveResize=0;strokeColor=inherit;fillColor=none;align=center;whiteSpace=wrap;html=1;" parent="7aDyFeXtJ-Z812SFncce-17" vertex="1">
          <mxGeometry x="364" width="337" height="47" as="geometry">
            <mxRectangle width="337" height="47" as="alternateBounds" />
          </mxGeometry>
        </mxCell>
      </root>
    </mxGraphModel>
  </diagram>
  <diagram id="IniDSJtUzRsiRkD1yl-c" name="常见日期函数">
    <mxGraphModel dx="874" dy="462" grid="0" gridSize="10" guides="1" tooltips="1" connect="1" arrows="1" fold="1" page="1" pageScale="1" pageWidth="1920" pageHeight="1200" math="0" shadow="0">
      <root>
        <mxCell id="0" />
        <mxCell id="1" parent="0" />
        <mxCell id="SXt5MzPIaW0wpQR1jYup-1" value="" style="childLayout=tableLayout;recursiveResize=0;shadow=0;fillColor=none;" vertex="1" parent="1">
          <mxGeometry x="212" y="71" width="571.8799438476562" height="410" as="geometry" />
        </mxCell>
        <mxCell id="SXt5MzPIaW0wpQR1jYup-2" value="" style="shape=tableRow;horizontal=0;startSize=0;swimlaneHead=0;swimlaneBody=0;top=0;left=0;bottom=0;right=0;dropTarget=0;collapsible=0;recursiveResize=0;expand=0;fontStyle=0;fillColor=none;strokeColor=inherit;" vertex="1" parent="SXt5MzPIaW0wpQR1jYup-1">
          <mxGeometry width="571.8799438476562" height="35" as="geometry" />
        </mxCell>
        <mxCell id="SXt5MzPIaW0wpQR1jYup-3" value="函数" style="connectable=0;recursiveResize=0;strokeColor=inherit;fillColor=#99FF99;align=center;whiteSpace=wrap;html=1;fontStyle=1" vertex="1" parent="SXt5MzPIaW0wpQR1jYup-2">
          <mxGeometry width="245" height="35" as="geometry">
            <mxRectangle width="245" height="35" as="alternateBounds" />
          </mxGeometry>
        </mxCell>
        <mxCell id="SXt5MzPIaW0wpQR1jYup-4" value="功能" style="connectable=0;recursiveResize=0;strokeColor=inherit;fillColor=#99FF99;align=center;whiteSpace=wrap;html=1;fontStyle=1" vertex="1" parent="SXt5MzPIaW0wpQR1jYup-2">
          <mxGeometry x="245" width="327" height="35" as="geometry">
            <mxRectangle width="327" height="35" as="alternateBounds" />
          </mxGeometry>
        </mxCell>
        <mxCell id="SXt5MzPIaW0wpQR1jYup-6" style="shape=tableRow;horizontal=0;startSize=0;swimlaneHead=0;swimlaneBody=0;top=0;left=0;bottom=0;right=0;dropTarget=0;collapsible=0;recursiveResize=0;expand=0;fontStyle=0;fillColor=none;strokeColor=inherit;" vertex="1" parent="SXt5MzPIaW0wpQR1jYup-1">
          <mxGeometry y="35" width="571.8799438476562" height="46" as="geometry" />
        </mxCell>
        <mxCell id="SXt5MzPIaW0wpQR1jYup-7" value="CURDATE()" style="connectable=0;recursiveResize=0;strokeColor=inherit;fillColor=none;align=center;whiteSpace=wrap;html=1;" vertex="1" parent="SXt5MzPIaW0wpQR1jYup-6">
          <mxGeometry width="245" height="46" as="geometry">
            <mxRectangle width="245" height="46" as="alternateBounds" />
          </mxGeometry>
        </mxCell>
        <mxCell id="SXt5MzPIaW0wpQR1jYup-8" value="返回当前日期" style="connectable=0;recursiveResize=0;strokeColor=inherit;fillColor=none;align=center;whiteSpace=wrap;html=1;" vertex="1" parent="SXt5MzPIaW0wpQR1jYup-6">
          <mxGeometry x="245" width="327" height="46" as="geometry">
            <mxRectangle width="327" height="46" as="alternateBounds" />
          </mxGeometry>
        </mxCell>
        <mxCell id="SXt5MzPIaW0wpQR1jYup-10" style="shape=tableRow;horizontal=0;startSize=0;swimlaneHead=0;swimlaneBody=0;top=0;left=0;bottom=0;right=0;dropTarget=0;collapsible=0;recursiveResize=0;expand=0;fontStyle=0;fillColor=none;strokeColor=inherit;" vertex="1" parent="SXt5MzPIaW0wpQR1jYup-1">
          <mxGeometry y="81" width="571.8799438476562" height="47" as="geometry" />
        </mxCell>
        <mxCell id="SXt5MzPIaW0wpQR1jYup-11" value="CURTIME()" style="connectable=0;recursiveResize=0;strokeColor=inherit;fillColor=none;align=center;whiteSpace=wrap;html=1;" vertex="1" parent="SXt5MzPIaW0wpQR1jYup-10">
          <mxGeometry width="245" height="47" as="geometry">
            <mxRectangle width="245" height="47" as="alternateBounds" />
          </mxGeometry>
        </mxCell>
        <mxCell id="SXt5MzPIaW0wpQR1jYup-12" value="返回当前时间" style="connectable=0;recursiveResize=0;strokeColor=inherit;fillColor=none;align=center;whiteSpace=wrap;html=1;" vertex="1" parent="SXt5MzPIaW0wpQR1jYup-10">
          <mxGeometry x="245" width="327" height="47" as="geometry">
            <mxRectangle width="327" height="47" as="alternateBounds" />
          </mxGeometry>
        </mxCell>
        <mxCell id="SXt5MzPIaW0wpQR1jYup-14" style="shape=tableRow;horizontal=0;startSize=0;swimlaneHead=0;swimlaneBody=0;top=0;left=0;bottom=0;right=0;dropTarget=0;collapsible=0;recursiveResize=0;expand=0;fontStyle=0;fillColor=none;strokeColor=inherit;" vertex="1" parent="SXt5MzPIaW0wpQR1jYup-1">
          <mxGeometry y="128" width="571.8799438476562" height="47" as="geometry" />
        </mxCell>
        <mxCell id="SXt5MzPIaW0wpQR1jYup-15" value="NOW()" style="connectable=0;recursiveResize=0;strokeColor=inherit;fillColor=none;align=center;whiteSpace=wrap;html=1;" vertex="1" parent="SXt5MzPIaW0wpQR1jYup-14">
          <mxGeometry width="245" height="47" as="geometry">
            <mxRectangle width="245" height="47" as="alternateBounds" />
          </mxGeometry>
        </mxCell>
        <mxCell id="SXt5MzPIaW0wpQR1jYup-16" value="返回当前日期和时间" style="connectable=0;recursiveResize=0;strokeColor=inherit;fillColor=none;align=center;whiteSpace=wrap;html=1;" vertex="1" parent="SXt5MzPIaW0wpQR1jYup-14">
          <mxGeometry x="245" width="327" height="47" as="geometry">
            <mxRectangle width="327" height="47" as="alternateBounds" />
          </mxGeometry>
        </mxCell>
        <mxCell id="SXt5MzPIaW0wpQR1jYup-17" style="shape=tableRow;horizontal=0;startSize=0;swimlaneHead=0;swimlaneBody=0;top=0;left=0;bottom=0;right=0;dropTarget=0;collapsible=0;recursiveResize=0;expand=0;fontStyle=0;fillColor=none;strokeColor=inherit;" vertex="1" parent="SXt5MzPIaW0wpQR1jYup-1">
          <mxGeometry y="175" width="571.8799438476562" height="47" as="geometry" />
        </mxCell>
        <mxCell id="SXt5MzPIaW0wpQR1jYup-18" value="YEAR(date)" style="connectable=0;recursiveResize=0;strokeColor=inherit;fillColor=none;align=center;whiteSpace=wrap;html=1;" vertex="1" parent="SXt5MzPIaW0wpQR1jYup-17">
          <mxGeometry width="245" height="47" as="geometry">
            <mxRectangle width="245" height="47" as="alternateBounds" />
          </mxGeometry>
        </mxCell>
        <mxCell id="SXt5MzPIaW0wpQR1jYup-19" value="获取指定date的年份" style="connectable=0;recursiveResize=0;strokeColor=inherit;fillColor=none;align=center;whiteSpace=wrap;html=1;" vertex="1" parent="SXt5MzPIaW0wpQR1jYup-17">
          <mxGeometry x="245" width="327" height="47" as="geometry">
            <mxRectangle width="327" height="47" as="alternateBounds" />
          </mxGeometry>
        </mxCell>
        <mxCell id="SXt5MzPIaW0wpQR1jYup-20" style="shape=tableRow;horizontal=0;startSize=0;swimlaneHead=0;swimlaneBody=0;top=0;left=0;bottom=0;right=0;dropTarget=0;collapsible=0;recursiveResize=0;expand=0;fontStyle=0;fillColor=none;strokeColor=inherit;" vertex="1" parent="SXt5MzPIaW0wpQR1jYup-1">
          <mxGeometry y="222" width="571.8799438476562" height="47" as="geometry" />
        </mxCell>
        <mxCell id="SXt5MzPIaW0wpQR1jYup-21" value="MONTH(date)" style="connectable=0;recursiveResize=0;strokeColor=inherit;fillColor=none;align=center;whiteSpace=wrap;html=1;" vertex="1" parent="SXt5MzPIaW0wpQR1jYup-20">
          <mxGeometry width="245" height="47" as="geometry">
            <mxRectangle width="245" height="47" as="alternateBounds" />
          </mxGeometry>
        </mxCell>
        <mxCell id="SXt5MzPIaW0wpQR1jYup-22" value="获取指定date的月份" style="connectable=0;recursiveResize=0;strokeColor=inherit;fillColor=none;align=center;whiteSpace=wrap;html=1;" vertex="1" parent="SXt5MzPIaW0wpQR1jYup-20">
          <mxGeometry x="245" width="327" height="47" as="geometry">
            <mxRectangle width="327" height="47" as="alternateBounds" />
          </mxGeometry>
        </mxCell>
        <mxCell id="SXt5MzPIaW0wpQR1jYup-23" style="shape=tableRow;horizontal=0;startSize=0;swimlaneHead=0;swimlaneBody=0;top=0;left=0;bottom=0;right=0;dropTarget=0;collapsible=0;recursiveResize=0;expand=0;fontStyle=0;fillColor=none;strokeColor=inherit;" vertex="1" parent="SXt5MzPIaW0wpQR1jYup-1">
          <mxGeometry y="269" width="571.8799438476562" height="47" as="geometry" />
        </mxCell>
        <mxCell id="SXt5MzPIaW0wpQR1jYup-24" value="DAY(date)" style="connectable=0;recursiveResize=0;strokeColor=inherit;fillColor=none;align=center;whiteSpace=wrap;html=1;" vertex="1" parent="SXt5MzPIaW0wpQR1jYup-23">
          <mxGeometry width="245" height="47" as="geometry">
            <mxRectangle width="245" height="47" as="alternateBounds" />
          </mxGeometry>
        </mxCell>
        <mxCell id="SXt5MzPIaW0wpQR1jYup-25" value="获取指定date的日期" style="connectable=0;recursiveResize=0;strokeColor=inherit;fillColor=none;align=center;whiteSpace=wrap;html=1;" vertex="1" parent="SXt5MzPIaW0wpQR1jYup-23">
          <mxGeometry x="245" width="327" height="47" as="geometry">
            <mxRectangle width="327" height="47" as="alternateBounds" />
          </mxGeometry>
        </mxCell>
        <mxCell id="SXt5MzPIaW0wpQR1jYup-26" style="shape=tableRow;horizontal=0;startSize=0;swimlaneHead=0;swimlaneBody=0;top=0;left=0;bottom=0;right=0;dropTarget=0;collapsible=0;recursiveResize=0;expand=0;fontStyle=0;fillColor=none;strokeColor=inherit;" vertex="1" parent="SXt5MzPIaW0wpQR1jYup-1">
          <mxGeometry y="316" width="571.8799438476562" height="47" as="geometry" />
        </mxCell>
        <mxCell id="SXt5MzPIaW0wpQR1jYup-27" value="DATE_ADD(date, INTERVAL expr type)" style="connectable=0;recursiveResize=0;strokeColor=inherit;fillColor=none;align=center;whiteSpace=wrap;html=1;" vertex="1" parent="SXt5MzPIaW0wpQR1jYup-26">
          <mxGeometry width="245" height="47" as="geometry">
            <mxRectangle width="245" height="47" as="alternateBounds" />
          </mxGeometry>
        </mxCell>
        <mxCell id="SXt5MzPIaW0wpQR1jYup-28" value="返回一个日期/时间值加上一个时间间隔expr后的时间值" style="connectable=0;recursiveResize=0;strokeColor=inherit;fillColor=none;align=center;whiteSpace=wrap;html=1;" vertex="1" parent="SXt5MzPIaW0wpQR1jYup-26">
          <mxGeometry x="245" width="327" height="47" as="geometry">
            <mxRectangle width="327" height="47" as="alternateBounds" />
          </mxGeometry>
        </mxCell>
        <mxCell id="SXt5MzPIaW0wpQR1jYup-29" style="shape=tableRow;horizontal=0;startSize=0;swimlaneHead=0;swimlaneBody=0;top=0;left=0;bottom=0;right=0;dropTarget=0;collapsible=0;recursiveResize=0;expand=0;fontStyle=0;fillColor=none;strokeColor=inherit;" vertex="1" parent="SXt5MzPIaW0wpQR1jYup-1">
          <mxGeometry y="363" width="571.8799438476562" height="47" as="geometry" />
        </mxCell>
        <mxCell id="SXt5MzPIaW0wpQR1jYup-30" value="DATEDIFF(date1,date2)" style="connectable=0;recursiveResize=0;strokeColor=inherit;fillColor=none;align=center;whiteSpace=wrap;html=1;" vertex="1" parent="SXt5MzPIaW0wpQR1jYup-29">
          <mxGeometry width="245" height="47" as="geometry">
            <mxRectangle width="245" height="47" as="alternateBounds" />
          </mxGeometry>
        </mxCell>
        <mxCell id="SXt5MzPIaW0wpQR1jYup-31" value="返回起始时间date1 和 结束时间date2之间的天数" style="connectable=0;recursiveResize=0;strokeColor=inherit;fillColor=none;align=center;whiteSpace=wrap;html=1;" vertex="1" parent="SXt5MzPIaW0wpQR1jYup-29">
          <mxGeometry x="245" width="327" height="47" as="geometry">
            <mxRectangle width="327" height="47" as="alternateBounds" />
          </mxGeometry>
        </mxCell>
      </root>
    </mxGraphModel>
  </diagram>
  <diagram id="RUzaeLZhOUkrQdn4tz-f" name="约束">
    <mxGraphModel dx="723" dy="387" grid="0" gridSize="10" guides="1" tooltips="1" connect="1" arrows="1" fold="1" page="1" pageScale="1" pageWidth="1920" pageHeight="1200" math="0" shadow="0">
      <root>
        <mxCell id="0" />
        <mxCell id="1" parent="0" />
        <mxCell id="VBz5VuwyQfCcPxoC-5Q1-1" value="" style="childLayout=tableLayout;recursiveResize=0;shadow=0;fillColor=none;" vertex="1" parent="1">
          <mxGeometry x="331" y="117" width="662.02978515625" height="316" as="geometry" />
        </mxCell>
        <mxCell id="VBz5VuwyQfCcPxoC-5Q1-2" value="" style="shape=tableRow;horizontal=0;startSize=0;swimlaneHead=0;swimlaneBody=0;top=0;left=0;bottom=0;right=0;dropTarget=0;collapsible=0;recursiveResize=0;expand=0;fontStyle=0;fillColor=none;strokeColor=inherit;" vertex="1" parent="VBz5VuwyQfCcPxoC-5Q1-1">
          <mxGeometry width="662.02978515625" height="35" as="geometry" />
        </mxCell>
        <mxCell id="VBz5VuwyQfCcPxoC-5Q1-3" value="约束" style="connectable=0;recursiveResize=0;strokeColor=inherit;fillColor=#9999FF;align=center;whiteSpace=wrap;html=1;fontStyle=1" vertex="1" parent="VBz5VuwyQfCcPxoC-5Q1-2">
          <mxGeometry width="131" height="35" as="geometry">
            <mxRectangle width="131" height="35" as="alternateBounds" />
          </mxGeometry>
        </mxCell>
        <mxCell id="VBz5VuwyQfCcPxoC-5Q1-4" value="描述" style="connectable=0;recursiveResize=0;strokeColor=inherit;fillColor=#9999FF;align=center;whiteSpace=wrap;html=1;fontStyle=1" vertex="1" parent="VBz5VuwyQfCcPxoC-5Q1-2">
          <mxGeometry x="131" width="384" height="35" as="geometry">
            <mxRectangle width="384" height="35" as="alternateBounds" />
          </mxGeometry>
        </mxCell>
        <mxCell id="VBz5VuwyQfCcPxoC-5Q1-26" value="关键字" style="connectable=0;recursiveResize=0;strokeColor=inherit;fillColor=#9999FF;align=center;whiteSpace=wrap;html=1;fontStyle=1" vertex="1" parent="VBz5VuwyQfCcPxoC-5Q1-2">
          <mxGeometry x="515" width="147" height="35" as="geometry">
            <mxRectangle width="147" height="35" as="alternateBounds" />
          </mxGeometry>
        </mxCell>
        <mxCell id="VBz5VuwyQfCcPxoC-5Q1-6" style="shape=tableRow;horizontal=0;startSize=0;swimlaneHead=0;swimlaneBody=0;top=0;left=0;bottom=0;right=0;dropTarget=0;collapsible=0;recursiveResize=0;expand=0;fontStyle=0;fillColor=none;strokeColor=inherit;" vertex="1" parent="VBz5VuwyQfCcPxoC-5Q1-1">
          <mxGeometry y="35" width="662.02978515625" height="46" as="geometry" />
        </mxCell>
        <mxCell id="VBz5VuwyQfCcPxoC-5Q1-7" value="非空约束" style="connectable=0;recursiveResize=0;strokeColor=inherit;fillColor=none;align=center;whiteSpace=wrap;html=1;" vertex="1" parent="VBz5VuwyQfCcPxoC-5Q1-6">
          <mxGeometry width="131" height="46" as="geometry">
            <mxRectangle width="131" height="46" as="alternateBounds" />
          </mxGeometry>
        </mxCell>
        <mxCell id="VBz5VuwyQfCcPxoC-5Q1-8" value="限制该字段的数据不能为null" style="connectable=0;recursiveResize=0;strokeColor=inherit;fillColor=none;align=center;whiteSpace=wrap;html=1;" vertex="1" parent="VBz5VuwyQfCcPxoC-5Q1-6">
          <mxGeometry x="131" width="384" height="46" as="geometry">
            <mxRectangle width="384" height="46" as="alternateBounds" />
          </mxGeometry>
        </mxCell>
        <mxCell id="VBz5VuwyQfCcPxoC-5Q1-27" value="NOT NULL" style="connectable=0;recursiveResize=0;strokeColor=inherit;fillColor=none;align=center;whiteSpace=wrap;html=1;" vertex="1" parent="VBz5VuwyQfCcPxoC-5Q1-6">
          <mxGeometry x="515" width="147" height="46" as="geometry">
            <mxRectangle width="147" height="46" as="alternateBounds" />
          </mxGeometry>
        </mxCell>
        <mxCell id="VBz5VuwyQfCcPxoC-5Q1-10" style="shape=tableRow;horizontal=0;startSize=0;swimlaneHead=0;swimlaneBody=0;top=0;left=0;bottom=0;right=0;dropTarget=0;collapsible=0;recursiveResize=0;expand=0;fontStyle=0;fillColor=none;strokeColor=inherit;" vertex="1" parent="VBz5VuwyQfCcPxoC-5Q1-1">
          <mxGeometry y="81" width="662.02978515625" height="47" as="geometry" />
        </mxCell>
        <mxCell id="VBz5VuwyQfCcPxoC-5Q1-11" value="唯一约束" style="connectable=0;recursiveResize=0;strokeColor=inherit;fillColor=none;align=center;whiteSpace=wrap;html=1;" vertex="1" parent="VBz5VuwyQfCcPxoC-5Q1-10">
          <mxGeometry width="131" height="47" as="geometry">
            <mxRectangle width="131" height="47" as="alternateBounds" />
          </mxGeometry>
        </mxCell>
        <mxCell id="VBz5VuwyQfCcPxoC-5Q1-12" value="保证该字段的所有数据都是唯一、不重复的、可以为空" style="connectable=0;recursiveResize=0;strokeColor=inherit;fillColor=none;align=center;whiteSpace=wrap;html=1;" vertex="1" parent="VBz5VuwyQfCcPxoC-5Q1-10">
          <mxGeometry x="131" width="384" height="47" as="geometry">
            <mxRectangle width="384" height="47" as="alternateBounds" />
          </mxGeometry>
        </mxCell>
        <mxCell id="VBz5VuwyQfCcPxoC-5Q1-28" value="UNIQUE" style="connectable=0;recursiveResize=0;strokeColor=inherit;fillColor=none;align=center;whiteSpace=wrap;html=1;" vertex="1" parent="VBz5VuwyQfCcPxoC-5Q1-10">
          <mxGeometry x="515" width="147" height="47" as="geometry">
            <mxRectangle width="147" height="47" as="alternateBounds" />
          </mxGeometry>
        </mxCell>
        <mxCell id="VBz5VuwyQfCcPxoC-5Q1-14" style="shape=tableRow;horizontal=0;startSize=0;swimlaneHead=0;swimlaneBody=0;top=0;left=0;bottom=0;right=0;dropTarget=0;collapsible=0;recursiveResize=0;expand=0;fontStyle=0;fillColor=none;strokeColor=inherit;" vertex="1" parent="VBz5VuwyQfCcPxoC-5Q1-1">
          <mxGeometry y="128" width="662.02978515625" height="47" as="geometry" />
        </mxCell>
        <mxCell id="VBz5VuwyQfCcPxoC-5Q1-15" value="主键约束" style="connectable=0;recursiveResize=0;strokeColor=inherit;fillColor=none;align=center;whiteSpace=wrap;html=1;" vertex="1" parent="VBz5VuwyQfCcPxoC-5Q1-14">
          <mxGeometry width="131" height="47" as="geometry">
            <mxRectangle width="131" height="47" as="alternateBounds" />
          </mxGeometry>
        </mxCell>
        <mxCell id="VBz5VuwyQfCcPxoC-5Q1-16" value="主键是一行数据的唯一标识，要求非空且唯一" style="connectable=0;recursiveResize=0;strokeColor=inherit;fillColor=none;align=center;whiteSpace=wrap;html=1;" vertex="1" parent="VBz5VuwyQfCcPxoC-5Q1-14">
          <mxGeometry x="131" width="384" height="47" as="geometry">
            <mxRectangle width="384" height="47" as="alternateBounds" />
          </mxGeometry>
        </mxCell>
        <mxCell id="VBz5VuwyQfCcPxoC-5Q1-29" value="PRIMARY KEY" style="connectable=0;recursiveResize=0;strokeColor=inherit;fillColor=none;align=center;whiteSpace=wrap;html=1;" vertex="1" parent="VBz5VuwyQfCcPxoC-5Q1-14">
          <mxGeometry x="515" width="147" height="47" as="geometry">
            <mxRectangle width="147" height="47" as="alternateBounds" />
          </mxGeometry>
        </mxCell>
        <mxCell id="VBz5VuwyQfCcPxoC-5Q1-17" style="shape=tableRow;horizontal=0;startSize=0;swimlaneHead=0;swimlaneBody=0;top=0;left=0;bottom=0;right=0;dropTarget=0;collapsible=0;recursiveResize=0;expand=0;fontStyle=0;fillColor=none;strokeColor=inherit;" vertex="1" parent="VBz5VuwyQfCcPxoC-5Q1-1">
          <mxGeometry y="175" width="662.02978515625" height="47" as="geometry" />
        </mxCell>
        <mxCell id="VBz5VuwyQfCcPxoC-5Q1-18" value="默认约束" style="connectable=0;recursiveResize=0;strokeColor=inherit;fillColor=none;align=center;whiteSpace=wrap;html=1;" vertex="1" parent="VBz5VuwyQfCcPxoC-5Q1-17">
          <mxGeometry width="131" height="47" as="geometry">
            <mxRectangle width="131" height="47" as="alternateBounds" />
          </mxGeometry>
        </mxCell>
        <mxCell id="VBz5VuwyQfCcPxoC-5Q1-19" value="保存数据时，如果未指定该字段的值，则采用默认值" style="connectable=0;recursiveResize=0;strokeColor=inherit;fillColor=none;align=center;whiteSpace=wrap;html=1;" vertex="1" parent="VBz5VuwyQfCcPxoC-5Q1-17">
          <mxGeometry x="131" width="384" height="47" as="geometry">
            <mxRectangle width="384" height="47" as="alternateBounds" />
          </mxGeometry>
        </mxCell>
        <mxCell id="VBz5VuwyQfCcPxoC-5Q1-30" value="DEFAULT" style="connectable=0;recursiveResize=0;strokeColor=inherit;fillColor=none;align=center;whiteSpace=wrap;html=1;" vertex="1" parent="VBz5VuwyQfCcPxoC-5Q1-17">
          <mxGeometry x="515" width="147" height="47" as="geometry">
            <mxRectangle width="147" height="47" as="alternateBounds" />
          </mxGeometry>
        </mxCell>
        <mxCell id="VBz5VuwyQfCcPxoC-5Q1-20" style="shape=tableRow;horizontal=0;startSize=0;swimlaneHead=0;swimlaneBody=0;top=0;left=0;bottom=0;right=0;dropTarget=0;collapsible=0;recursiveResize=0;expand=0;fontStyle=0;fillColor=none;strokeColor=inherit;" vertex="1" parent="VBz5VuwyQfCcPxoC-5Q1-1">
          <mxGeometry y="222" width="662.02978515625" height="47" as="geometry" />
        </mxCell>
        <mxCell id="VBz5VuwyQfCcPxoC-5Q1-21" value="检查约束" style="connectable=0;recursiveResize=0;strokeColor=inherit;fillColor=none;align=center;whiteSpace=wrap;html=1;" vertex="1" parent="VBz5VuwyQfCcPxoC-5Q1-20">
          <mxGeometry width="131" height="47" as="geometry">
            <mxRectangle width="131" height="47" as="alternateBounds" />
          </mxGeometry>
        </mxCell>
        <mxCell id="VBz5VuwyQfCcPxoC-5Q1-22" value="插入数值时根据指定条件校验合法性(8.0.16版本之后开始)" style="connectable=0;recursiveResize=0;strokeColor=inherit;fillColor=none;align=center;whiteSpace=wrap;html=1;" vertex="1" parent="VBz5VuwyQfCcPxoC-5Q1-20">
          <mxGeometry x="131" width="384" height="47" as="geometry">
            <mxRectangle width="384" height="47" as="alternateBounds" />
          </mxGeometry>
        </mxCell>
        <mxCell id="VBz5VuwyQfCcPxoC-5Q1-31" value="CHECK" style="connectable=0;recursiveResize=0;strokeColor=inherit;fillColor=none;align=center;whiteSpace=wrap;html=1;" vertex="1" parent="VBz5VuwyQfCcPxoC-5Q1-20">
          <mxGeometry x="515" width="147" height="47" as="geometry">
            <mxRectangle width="147" height="47" as="alternateBounds" />
          </mxGeometry>
        </mxCell>
        <mxCell id="VBz5VuwyQfCcPxoC-5Q1-23" style="shape=tableRow;horizontal=0;startSize=0;swimlaneHead=0;swimlaneBody=0;top=0;left=0;bottom=0;right=0;dropTarget=0;collapsible=0;recursiveResize=0;expand=0;fontStyle=0;fillColor=none;strokeColor=inherit;" vertex="1" parent="VBz5VuwyQfCcPxoC-5Q1-1">
          <mxGeometry y="269" width="662.02978515625" height="47" as="geometry" />
        </mxCell>
        <mxCell id="VBz5VuwyQfCcPxoC-5Q1-24" value="外检约束" style="connectable=0;recursiveResize=0;strokeColor=inherit;fillColor=none;align=center;whiteSpace=wrap;html=1;" vertex="1" parent="VBz5VuwyQfCcPxoC-5Q1-23">
          <mxGeometry width="131" height="47" as="geometry">
            <mxRectangle width="131" height="47" as="alternateBounds" />
          </mxGeometry>
        </mxCell>
        <mxCell id="VBz5VuwyQfCcPxoC-5Q1-25" value="用来让两张表的数据之间建立连接，保证数据的一致性和完整性" style="connectable=0;recursiveResize=0;strokeColor=inherit;fillColor=none;align=center;whiteSpace=wrap;html=1;" vertex="1" parent="VBz5VuwyQfCcPxoC-5Q1-23">
          <mxGeometry x="131" width="384" height="47" as="geometry">
            <mxRectangle width="384" height="47" as="alternateBounds" />
          </mxGeometry>
        </mxCell>
        <mxCell id="VBz5VuwyQfCcPxoC-5Q1-32" value="FOREIGN KEY" style="connectable=0;recursiveResize=0;strokeColor=inherit;fillColor=none;align=center;whiteSpace=wrap;html=1;" vertex="1" parent="VBz5VuwyQfCcPxoC-5Q1-23">
          <mxGeometry x="515" width="147" height="47" as="geometry">
            <mxRectangle width="147" height="47" as="alternateBounds" />
          </mxGeometry>
        </mxCell>
      </root>
    </mxGraphModel>
  </diagram>
  <diagram id="e4h7HbDz3gCpTYhw1woH" name="约束实例">
    <mxGraphModel dx="512" dy="389" grid="0" gridSize="10" guides="1" tooltips="1" connect="1" arrows="1" fold="1" page="1" pageScale="1" pageWidth="1920" pageHeight="1200" math="0" shadow="0">
      <root>
        <mxCell id="0" />
        <mxCell id="1" parent="0" />
        <mxCell id="Sbo-PSi3keFyAf50f-Oo-1" value="" style="childLayout=tableLayout;recursiveResize=0;shadow=0;fillColor=none;" parent="1" vertex="1">
          <mxGeometry x="310" y="79" width="693" height="268.6300048828125" as="geometry" />
        </mxCell>
        <mxCell id="Sbo-PSi3keFyAf50f-Oo-2" value="" style="shape=tableRow;horizontal=0;startSize=0;swimlaneHead=0;swimlaneBody=0;top=0;left=0;bottom=0;right=0;dropTarget=0;collapsible=0;recursiveResize=0;expand=0;fontStyle=0;fillColor=none;strokeColor=inherit;" parent="Sbo-PSi3keFyAf50f-Oo-1" vertex="1">
          <mxGeometry width="693" height="35" as="geometry" />
        </mxCell>
        <mxCell id="Sbo-PSi3keFyAf50f-Oo-3" value="字段名" style="connectable=0;recursiveResize=0;strokeColor=inherit;fillColor=#99FFCC;align=center;whiteSpace=wrap;html=1;fontStyle=1;flipH=1;" parent="Sbo-PSi3keFyAf50f-Oo-2" vertex="1">
          <mxGeometry width="77" height="35" as="geometry">
            <mxRectangle width="77" height="35" as="alternateBounds" />
          </mxGeometry>
        </mxCell>
        <mxCell id="Sbo-PSi3keFyAf50f-Oo-4" value="字段含义" style="connectable=0;recursiveResize=0;strokeColor=inherit;fillColor=#99FFCC;align=center;whiteSpace=wrap;html=1;fontStyle=1;flipH=1;" parent="Sbo-PSi3keFyAf50f-Oo-2" vertex="1">
          <mxGeometry x="77" width="90" height="35" as="geometry">
            <mxRectangle width="90" height="35" as="alternateBounds" />
          </mxGeometry>
        </mxCell>
        <mxCell id="Sbo-PSi3keFyAf50f-Oo-5" value="字段类型" style="connectable=0;recursiveResize=0;strokeColor=inherit;fillColor=#99FFCC;align=center;whiteSpace=wrap;html=1;fontStyle=1;flipH=1;" parent="Sbo-PSi3keFyAf50f-Oo-2" vertex="1">
          <mxGeometry x="167" width="90" height="35" as="geometry">
            <mxRectangle width="90" height="35" as="alternateBounds" />
          </mxGeometry>
        </mxCell>
        <mxCell id="Sbo-PSi3keFyAf50f-Oo-22" value="约束条件" style="connectable=0;recursiveResize=0;strokeColor=inherit;fillColor=#99FFCC;align=center;whiteSpace=wrap;html=1;fontStyle=1;flipH=1;" parent="Sbo-PSi3keFyAf50f-Oo-2" vertex="1">
          <mxGeometry x="257" width="200" height="35" as="geometry">
            <mxRectangle width="200" height="35" as="alternateBounds" />
          </mxGeometry>
        </mxCell>
        <mxCell id="Sbo-PSi3keFyAf50f-Oo-18" value="约束关键字" style="connectable=0;recursiveResize=0;strokeColor=inherit;fillColor=#99FFCC;align=center;whiteSpace=wrap;html=1;fontStyle=1;flipH=1;" parent="Sbo-PSi3keFyAf50f-Oo-2" vertex="1">
          <mxGeometry x="457" width="236" height="35" as="geometry">
            <mxRectangle width="236" height="35" as="alternateBounds" />
          </mxGeometry>
        </mxCell>
        <mxCell id="Sbo-PSi3keFyAf50f-Oo-14" value="" style="shape=tableRow;horizontal=0;startSize=0;swimlaneHead=0;swimlaneBody=0;top=0;left=0;bottom=0;right=0;dropTarget=0;collapsible=0;recursiveResize=0;expand=0;fontStyle=0;fillColor=none;strokeColor=inherit;" parent="Sbo-PSi3keFyAf50f-Oo-1" vertex="1">
          <mxGeometry y="35" width="693" height="47" as="geometry" />
        </mxCell>
        <mxCell id="Sbo-PSi3keFyAf50f-Oo-15" value="id" style="connectable=0;recursiveResize=0;strokeColor=inherit;fillColor=none;align=center;whiteSpace=wrap;html=1;" parent="Sbo-PSi3keFyAf50f-Oo-14" vertex="1">
          <mxGeometry width="77" height="47" as="geometry">
            <mxRectangle width="77" height="47" as="alternateBounds" />
          </mxGeometry>
        </mxCell>
        <mxCell id="Sbo-PSi3keFyAf50f-Oo-16" value="ID 唯一标识" style="connectable=0;recursiveResize=0;strokeColor=inherit;fillColor=none;align=center;whiteSpace=wrap;html=1;" parent="Sbo-PSi3keFyAf50f-Oo-14" vertex="1">
          <mxGeometry x="77" width="90" height="47" as="geometry">
            <mxRectangle width="90" height="47" as="alternateBounds" />
          </mxGeometry>
        </mxCell>
        <mxCell id="Sbo-PSi3keFyAf50f-Oo-17" value="int" style="connectable=0;recursiveResize=0;strokeColor=inherit;fillColor=none;align=center;whiteSpace=wrap;html=1;" parent="Sbo-PSi3keFyAf50f-Oo-14" vertex="1">
          <mxGeometry x="167" width="90" height="47" as="geometry">
            <mxRectangle width="90" height="47" as="alternateBounds" />
          </mxGeometry>
        </mxCell>
        <mxCell id="Sbo-PSi3keFyAf50f-Oo-23" value="主键，并且自动增长" style="connectable=0;recursiveResize=0;strokeColor=inherit;fillColor=none;align=center;whiteSpace=wrap;html=1;" parent="Sbo-PSi3keFyAf50f-Oo-14" vertex="1">
          <mxGeometry x="257" width="200" height="47" as="geometry">
            <mxRectangle width="200" height="47" as="alternateBounds" />
          </mxGeometry>
        </mxCell>
        <mxCell id="Sbo-PSi3keFyAf50f-Oo-19" value="PRIMARY KEY，AUTO_INCREMENT" style="connectable=0;recursiveResize=0;strokeColor=inherit;fillColor=none;align=center;whiteSpace=wrap;html=1;" parent="Sbo-PSi3keFyAf50f-Oo-14" vertex="1">
          <mxGeometry x="457" width="236" height="47" as="geometry">
            <mxRectangle width="236" height="47" as="alternateBounds" />
          </mxGeometry>
        </mxCell>
        <mxCell id="Sbo-PSi3keFyAf50f-Oo-6" style="shape=tableRow;horizontal=0;startSize=0;swimlaneHead=0;swimlaneBody=0;top=0;left=0;bottom=0;right=0;dropTarget=0;collapsible=0;recursiveResize=0;expand=0;fontStyle=0;fillColor=none;strokeColor=inherit;" parent="Sbo-PSi3keFyAf50f-Oo-1" vertex="1">
          <mxGeometry y="82" width="693" height="46" as="geometry" />
        </mxCell>
        <mxCell id="Sbo-PSi3keFyAf50f-Oo-7" value="name" style="connectable=0;recursiveResize=0;strokeColor=inherit;fillColor=none;align=center;whiteSpace=wrap;html=1;" parent="Sbo-PSi3keFyAf50f-Oo-6" vertex="1">
          <mxGeometry width="77" height="46" as="geometry">
            <mxRectangle width="77" height="46" as="alternateBounds" />
          </mxGeometry>
        </mxCell>
        <mxCell id="Sbo-PSi3keFyAf50f-Oo-8" value="姓名" style="connectable=0;recursiveResize=0;strokeColor=inherit;fillColor=none;align=center;whiteSpace=wrap;html=1;" parent="Sbo-PSi3keFyAf50f-Oo-6" vertex="1">
          <mxGeometry x="77" width="90" height="46" as="geometry">
            <mxRectangle width="90" height="46" as="alternateBounds" />
          </mxGeometry>
        </mxCell>
        <mxCell id="Sbo-PSi3keFyAf50f-Oo-9" value="varchar(10)" style="connectable=0;recursiveResize=0;strokeColor=inherit;fillColor=none;align=center;whiteSpace=wrap;html=1;" parent="Sbo-PSi3keFyAf50f-Oo-6" vertex="1">
          <mxGeometry x="167" width="90" height="46" as="geometry">
            <mxRectangle width="90" height="46" as="alternateBounds" />
          </mxGeometry>
        </mxCell>
        <mxCell id="Sbo-PSi3keFyAf50f-Oo-24" value="不为空，并且唯一" style="connectable=0;recursiveResize=0;strokeColor=inherit;fillColor=none;align=center;whiteSpace=wrap;html=1;" parent="Sbo-PSi3keFyAf50f-Oo-6" vertex="1">
          <mxGeometry x="257" width="200" height="46" as="geometry">
            <mxRectangle width="200" height="46" as="alternateBounds" />
          </mxGeometry>
        </mxCell>
        <mxCell id="Sbo-PSi3keFyAf50f-Oo-20" value="NOT NULL，UNIQUE" style="connectable=0;recursiveResize=0;strokeColor=inherit;fillColor=none;align=center;whiteSpace=wrap;html=1;" parent="Sbo-PSi3keFyAf50f-Oo-6" vertex="1">
          <mxGeometry x="457" width="236" height="46" as="geometry">
            <mxRectangle width="236" height="46" as="alternateBounds" />
          </mxGeometry>
        </mxCell>
        <mxCell id="Sbo-PSi3keFyAf50f-Oo-10" style="shape=tableRow;horizontal=0;startSize=0;swimlaneHead=0;swimlaneBody=0;top=0;left=0;bottom=0;right=0;dropTarget=0;collapsible=0;recursiveResize=0;expand=0;fontStyle=0;fillColor=none;strokeColor=inherit;" parent="Sbo-PSi3keFyAf50f-Oo-1" vertex="1">
          <mxGeometry y="128" width="693" height="47" as="geometry" />
        </mxCell>
        <mxCell id="Sbo-PSi3keFyAf50f-Oo-11" value="age" style="connectable=0;recursiveResize=0;strokeColor=inherit;fillColor=none;align=center;whiteSpace=wrap;html=1;" parent="Sbo-PSi3keFyAf50f-Oo-10" vertex="1">
          <mxGeometry width="77" height="47" as="geometry">
            <mxRectangle width="77" height="47" as="alternateBounds" />
          </mxGeometry>
        </mxCell>
        <mxCell id="Sbo-PSi3keFyAf50f-Oo-12" value="年龄" style="connectable=0;recursiveResize=0;strokeColor=inherit;fillColor=none;align=center;whiteSpace=wrap;html=1;" parent="Sbo-PSi3keFyAf50f-Oo-10" vertex="1">
          <mxGeometry x="77" width="90" height="47" as="geometry">
            <mxRectangle width="90" height="47" as="alternateBounds" />
          </mxGeometry>
        </mxCell>
        <mxCell id="Sbo-PSi3keFyAf50f-Oo-13" value="int" style="connectable=0;recursiveResize=0;strokeColor=inherit;fillColor=none;align=center;whiteSpace=wrap;html=1;" parent="Sbo-PSi3keFyAf50f-Oo-10" vertex="1">
          <mxGeometry x="167" width="90" height="47" as="geometry">
            <mxRectangle width="90" height="47" as="alternateBounds" />
          </mxGeometry>
        </mxCell>
        <mxCell id="Sbo-PSi3keFyAf50f-Oo-25" value="大于0，并且小于等于120" style="connectable=0;recursiveResize=0;strokeColor=inherit;fillColor=none;align=center;whiteSpace=wrap;html=1;" parent="Sbo-PSi3keFyAf50f-Oo-10" vertex="1">
          <mxGeometry x="257" width="200" height="47" as="geometry">
            <mxRectangle width="200" height="47" as="alternateBounds" />
          </mxGeometry>
        </mxCell>
        <mxCell id="Sbo-PSi3keFyAf50f-Oo-21" value="CHECK" style="connectable=0;recursiveResize=0;strokeColor=inherit;fillColor=none;align=center;whiteSpace=wrap;html=1;" parent="Sbo-PSi3keFyAf50f-Oo-10" vertex="1">
          <mxGeometry x="457" width="236" height="47" as="geometry">
            <mxRectangle width="236" height="47" as="alternateBounds" />
          </mxGeometry>
        </mxCell>
        <mxCell id="Sbo-PSi3keFyAf50f-Oo-26" style="shape=tableRow;horizontal=0;startSize=0;swimlaneHead=0;swimlaneBody=0;top=0;left=0;bottom=0;right=0;dropTarget=0;collapsible=0;recursiveResize=0;expand=0;fontStyle=0;fillColor=none;strokeColor=inherit;" parent="Sbo-PSi3keFyAf50f-Oo-1" vertex="1">
          <mxGeometry y="175" width="693" height="47" as="geometry" />
        </mxCell>
        <mxCell id="Sbo-PSi3keFyAf50f-Oo-27" value="status" style="connectable=0;recursiveResize=0;strokeColor=inherit;fillColor=none;align=center;whiteSpace=wrap;html=1;" parent="Sbo-PSi3keFyAf50f-Oo-26" vertex="1">
          <mxGeometry width="77" height="47" as="geometry">
            <mxRectangle width="77" height="47" as="alternateBounds" />
          </mxGeometry>
        </mxCell>
        <mxCell id="Sbo-PSi3keFyAf50f-Oo-28" value="状态" style="connectable=0;recursiveResize=0;strokeColor=inherit;fillColor=none;align=center;whiteSpace=wrap;html=1;" parent="Sbo-PSi3keFyAf50f-Oo-26" vertex="1">
          <mxGeometry x="77" width="90" height="47" as="geometry">
            <mxRectangle width="90" height="47" as="alternateBounds" />
          </mxGeometry>
        </mxCell>
        <mxCell id="Sbo-PSi3keFyAf50f-Oo-29" value="char(1)" style="connectable=0;recursiveResize=0;strokeColor=inherit;fillColor=none;align=center;whiteSpace=wrap;html=1;" parent="Sbo-PSi3keFyAf50f-Oo-26" vertex="1">
          <mxGeometry x="167" width="90" height="47" as="geometry">
            <mxRectangle width="90" height="47" as="alternateBounds" />
          </mxGeometry>
        </mxCell>
        <mxCell id="Sbo-PSi3keFyAf50f-Oo-30" value="如果没有指定该值，默认为1" style="connectable=0;recursiveResize=0;strokeColor=inherit;fillColor=none;align=center;whiteSpace=wrap;html=1;" parent="Sbo-PSi3keFyAf50f-Oo-26" vertex="1">
          <mxGeometry x="257" width="200" height="47" as="geometry">
            <mxRectangle width="200" height="47" as="alternateBounds" />
          </mxGeometry>
        </mxCell>
        <mxCell id="Sbo-PSi3keFyAf50f-Oo-31" value="DEFAULT" style="connectable=0;recursiveResize=0;strokeColor=inherit;fillColor=none;align=center;whiteSpace=wrap;html=1;" parent="Sbo-PSi3keFyAf50f-Oo-26" vertex="1">
          <mxGeometry x="457" width="236" height="47" as="geometry">
            <mxRectangle width="236" height="47" as="alternateBounds" />
          </mxGeometry>
        </mxCell>
        <mxCell id="Sbo-PSi3keFyAf50f-Oo-32" style="shape=tableRow;horizontal=0;startSize=0;swimlaneHead=0;swimlaneBody=0;top=0;left=0;bottom=0;right=0;dropTarget=0;collapsible=0;recursiveResize=0;expand=0;fontStyle=0;fillColor=none;strokeColor=inherit;" parent="Sbo-PSi3keFyAf50f-Oo-1" vertex="1">
          <mxGeometry y="222" width="693" height="47" as="geometry" />
        </mxCell>
        <mxCell id="Sbo-PSi3keFyAf50f-Oo-33" value="test" style="connectable=0;recursiveResize=0;strokeColor=inherit;fillColor=none;align=center;whiteSpace=wrap;html=1;" parent="Sbo-PSi3keFyAf50f-Oo-32" vertex="1">
          <mxGeometry width="77" height="47" as="geometry">
            <mxRectangle width="77" height="47" as="alternateBounds" />
          </mxGeometry>
        </mxCell>
        <mxCell id="Sbo-PSi3keFyAf50f-Oo-34" value="测试" style="connectable=0;recursiveResize=0;strokeColor=inherit;fillColor=none;align=center;whiteSpace=wrap;html=1;" parent="Sbo-PSi3keFyAf50f-Oo-32" vertex="1">
          <mxGeometry x="77" width="90" height="47" as="geometry">
            <mxRectangle width="90" height="47" as="alternateBounds" />
          </mxGeometry>
        </mxCell>
        <mxCell id="Sbo-PSi3keFyAf50f-Oo-35" value="int" style="connectable=0;recursiveResize=0;strokeColor=inherit;fillColor=none;align=center;whiteSpace=wrap;html=1;" parent="Sbo-PSi3keFyAf50f-Oo-32" vertex="1">
          <mxGeometry x="167" width="90" height="47" as="geometry">
            <mxRectangle width="90" height="47" as="alternateBounds" />
          </mxGeometry>
        </mxCell>
        <mxCell id="Sbo-PSi3keFyAf50f-Oo-36" value="无约束对比测试字段" style="connectable=0;recursiveResize=0;strokeColor=inherit;fillColor=none;align=center;whiteSpace=wrap;html=1;" parent="Sbo-PSi3keFyAf50f-Oo-32" vertex="1">
          <mxGeometry x="257" width="200" height="47" as="geometry">
            <mxRectangle width="200" height="47" as="alternateBounds" />
          </mxGeometry>
        </mxCell>
        <mxCell id="Sbo-PSi3keFyAf50f-Oo-37" value="无" style="connectable=0;recursiveResize=0;strokeColor=inherit;fillColor=none;align=center;whiteSpace=wrap;html=1;" parent="Sbo-PSi3keFyAf50f-Oo-32" vertex="1">
          <mxGeometry x="457" width="236" height="47" as="geometry">
            <mxRectangle width="236" height="47" as="alternateBounds" />
          </mxGeometry>
        </mxCell>
      </root>
    </mxGraphModel>
  </diagram>
  <diagram id="_khXEQNCjFwmd59kKa39" name="外键删除更新">
    <mxGraphModel dx="955" dy="393" grid="0" gridSize="10" guides="1" tooltips="1" connect="1" arrows="1" fold="1" page="1" pageScale="1" pageWidth="1920" pageHeight="1200" math="0" shadow="0">
      <root>
        <mxCell id="0" />
        <mxCell id="1" parent="0" />
        <mxCell id="tcx-XkEzRSHL28_jaWl3-1" value="" style="childLayout=tableLayout;recursiveResize=0;shadow=0;fillColor=none;" vertex="1" parent="1">
          <mxGeometry x="156" y="114" width="819.6300048828125" height="302" as="geometry" />
        </mxCell>
        <mxCell id="tcx-XkEzRSHL28_jaWl3-2" value="" style="shape=tableRow;horizontal=0;startSize=0;swimlaneHead=0;swimlaneBody=0;top=0;left=0;bottom=0;right=0;dropTarget=0;collapsible=0;recursiveResize=0;expand=0;fontStyle=0;fillColor=none;strokeColor=inherit;" vertex="1" parent="tcx-XkEzRSHL28_jaWl3-1">
          <mxGeometry width="819.6300048828125" height="45" as="geometry" />
        </mxCell>
        <mxCell id="tcx-XkEzRSHL28_jaWl3-3" value="行为" style="connectable=0;recursiveResize=0;strokeColor=inherit;fillColor=#99FFFF;align=center;whiteSpace=wrap;html=1;fontStyle=1" vertex="1" parent="tcx-XkEzRSHL28_jaWl3-2">
          <mxGeometry width="114" height="45" as="geometry">
            <mxRectangle width="114" height="45" as="alternateBounds" />
          </mxGeometry>
        </mxCell>
        <mxCell id="tcx-XkEzRSHL28_jaWl3-4" value="说明" style="connectable=0;recursiveResize=0;strokeColor=inherit;fillColor=#99FFFF;align=center;whiteSpace=wrap;html=1;fontStyle=1" vertex="1" parent="tcx-XkEzRSHL28_jaWl3-2">
          <mxGeometry x="114" width="706" height="45" as="geometry">
            <mxRectangle width="706" height="45" as="alternateBounds" />
          </mxGeometry>
        </mxCell>
        <mxCell id="tcx-XkEzRSHL28_jaWl3-6" style="shape=tableRow;horizontal=0;startSize=0;swimlaneHead=0;swimlaneBody=0;top=0;left=0;bottom=0;right=0;dropTarget=0;collapsible=0;recursiveResize=0;expand=0;fontStyle=0;fillColor=none;strokeColor=inherit;" vertex="1" parent="tcx-XkEzRSHL28_jaWl3-1">
          <mxGeometry y="45" width="819.6300048828125" height="50" as="geometry" />
        </mxCell>
        <mxCell id="tcx-XkEzRSHL28_jaWl3-7" value="NO ACTION" style="connectable=0;recursiveResize=0;strokeColor=inherit;fillColor=none;align=center;whiteSpace=wrap;html=1;" vertex="1" parent="tcx-XkEzRSHL28_jaWl3-6">
          <mxGeometry width="114" height="50" as="geometry">
            <mxRectangle width="114" height="50" as="alternateBounds" />
          </mxGeometry>
        </mxCell>
        <mxCell id="tcx-XkEzRSHL28_jaWl3-8" value="当在父表中删除/更新对应记录时，首先检查该记录是否有对应外键，如果有则不允许删除/更新 (与RESTRICT一致) &lt;b&gt;默认行为&lt;/b&gt;" style="connectable=0;recursiveResize=0;strokeColor=inherit;fillColor=none;align=center;whiteSpace=wrap;html=1;" vertex="1" parent="tcx-XkEzRSHL28_jaWl3-6">
          <mxGeometry x="114" width="706" height="50" as="geometry">
            <mxRectangle width="706" height="50" as="alternateBounds" />
          </mxGeometry>
        </mxCell>
        <mxCell id="tcx-XkEzRSHL28_jaWl3-10" style="shape=tableRow;horizontal=0;startSize=0;swimlaneHead=0;swimlaneBody=0;top=0;left=0;bottom=0;right=0;dropTarget=0;collapsible=0;recursiveResize=0;expand=0;fontStyle=0;fillColor=none;strokeColor=inherit;" vertex="1" parent="tcx-XkEzRSHL28_jaWl3-1">
          <mxGeometry y="95" width="819.6300048828125" height="52" as="geometry" />
        </mxCell>
        <mxCell id="tcx-XkEzRSHL28_jaWl3-11" value="RESTRICT" style="connectable=0;recursiveResize=0;strokeColor=inherit;fillColor=none;align=center;whiteSpace=wrap;html=1;" vertex="1" parent="tcx-XkEzRSHL28_jaWl3-10">
          <mxGeometry width="114" height="52" as="geometry">
            <mxRectangle width="114" height="52" as="alternateBounds" />
          </mxGeometry>
        </mxCell>
        <mxCell id="tcx-XkEzRSHL28_jaWl3-12" value="当在父表中删除/更新对应记录时，首先检查该记录是否有对应外键，如果有则不 允许删除/更新。 (与 NO ACTION 一致) &lt;b&gt;默认行为&lt;/b&gt;" style="connectable=0;recursiveResize=0;strokeColor=inherit;fillColor=none;align=center;whiteSpace=wrap;html=1;" vertex="1" parent="tcx-XkEzRSHL28_jaWl3-10">
          <mxGeometry x="114" width="706" height="52" as="geometry">
            <mxRectangle width="706" height="52" as="alternateBounds" />
          </mxGeometry>
        </mxCell>
        <mxCell id="tcx-XkEzRSHL28_jaWl3-14" style="shape=tableRow;horizontal=0;startSize=0;swimlaneHead=0;swimlaneBody=0;top=0;left=0;bottom=0;right=0;dropTarget=0;collapsible=0;recursiveResize=0;expand=0;fontStyle=0;fillColor=none;strokeColor=inherit;" vertex="1" parent="tcx-XkEzRSHL28_jaWl3-1">
          <mxGeometry y="147" width="819.6300048828125" height="52" as="geometry" />
        </mxCell>
        <mxCell id="tcx-XkEzRSHL28_jaWl3-15" value="CASCADE" style="connectable=0;recursiveResize=0;strokeColor=inherit;fillColor=none;align=center;whiteSpace=wrap;html=1;" vertex="1" parent="tcx-XkEzRSHL28_jaWl3-14">
          <mxGeometry width="114" height="52" as="geometry">
            <mxRectangle width="114" height="52" as="alternateBounds" />
          </mxGeometry>
        </mxCell>
        <mxCell id="tcx-XkEzRSHL28_jaWl3-16" value="当在父表中删除/更新对应记录时，首先检查该记录是否有对应外键，如果有，则 也删除/更新外键在子表中的记录。" style="connectable=0;recursiveResize=0;strokeColor=inherit;fillColor=none;align=center;whiteSpace=wrap;html=1;" vertex="1" parent="tcx-XkEzRSHL28_jaWl3-14">
          <mxGeometry x="114" width="706" height="52" as="geometry">
            <mxRectangle width="706" height="52" as="alternateBounds" />
          </mxGeometry>
        </mxCell>
        <mxCell id="tcx-XkEzRSHL28_jaWl3-17" style="shape=tableRow;horizontal=0;startSize=0;swimlaneHead=0;swimlaneBody=0;top=0;left=0;bottom=0;right=0;dropTarget=0;collapsible=0;recursiveResize=0;expand=0;fontStyle=0;fillColor=none;strokeColor=inherit;" vertex="1" parent="tcx-XkEzRSHL28_jaWl3-1">
          <mxGeometry y="199" width="819.6300048828125" height="51" as="geometry" />
        </mxCell>
        <mxCell id="tcx-XkEzRSHL28_jaWl3-18" value="SET NULL" style="connectable=0;recursiveResize=0;strokeColor=inherit;fillColor=none;align=center;whiteSpace=wrap;html=1;" vertex="1" parent="tcx-XkEzRSHL28_jaWl3-17">
          <mxGeometry width="114" height="51" as="geometry">
            <mxRectangle width="114" height="51" as="alternateBounds" />
          </mxGeometry>
        </mxCell>
        <mxCell id="tcx-XkEzRSHL28_jaWl3-19" value="当在父表中删除对应记录时，首先检查该记录是否有对应外键，如果有则设置子表 中该外键值为null（这就要求该外键允许取null）" style="connectable=0;recursiveResize=0;strokeColor=inherit;fillColor=none;align=center;whiteSpace=wrap;html=1;" vertex="1" parent="tcx-XkEzRSHL28_jaWl3-17">
          <mxGeometry x="114" width="706" height="51" as="geometry">
            <mxRectangle width="706" height="51" as="alternateBounds" />
          </mxGeometry>
        </mxCell>
        <mxCell id="tcx-XkEzRSHL28_jaWl3-20" style="shape=tableRow;horizontal=0;startSize=0;swimlaneHead=0;swimlaneBody=0;top=0;left=0;bottom=0;right=0;dropTarget=0;collapsible=0;recursiveResize=0;expand=0;fontStyle=0;fillColor=none;strokeColor=inherit;" vertex="1" parent="tcx-XkEzRSHL28_jaWl3-1">
          <mxGeometry y="250" width="819.6300048828125" height="52" as="geometry" />
        </mxCell>
        <mxCell id="tcx-XkEzRSHL28_jaWl3-21" value="SET DEFAULT" style="connectable=0;recursiveResize=0;strokeColor=inherit;fillColor=none;align=center;whiteSpace=wrap;html=1;" vertex="1" parent="tcx-XkEzRSHL28_jaWl3-20">
          <mxGeometry width="114" height="52" as="geometry">
            <mxRectangle width="114" height="52" as="alternateBounds" />
          </mxGeometry>
        </mxCell>
        <mxCell id="tcx-XkEzRSHL28_jaWl3-22" value="父表有变更时，子表将外键列设置成一个默认的值 (Innodb存储引擎不支持）" style="connectable=0;recursiveResize=0;strokeColor=inherit;fillColor=none;align=center;whiteSpace=wrap;html=1;" vertex="1" parent="tcx-XkEzRSHL28_jaWl3-20">
          <mxGeometry x="114" width="706" height="52" as="geometry">
            <mxRectangle width="706" height="52" as="alternateBounds" />
          </mxGeometry>
        </mxCell>
      </root>
    </mxGraphModel>
  </diagram>
</mxfile>
